<svg width="44" height="43" viewBox="0 0 44 43" fill="none" xmlns="http://www.w3.org/2000/svg">
<path fill-rule="evenodd" clip-rule="evenodd" d="M32.5699 9.67777C31.7065 10.1008 30.4169 10.7327 29.0202 10.7327C27.3177 10.7327 26.2465 10.5147 25.5212 10.3671C25.1179 10.285 24.8216 10.2247 24.5831 10.2357C24.2061 11.4612 24.2626 14.0209 24.3051 15.9477C24.317 16.4845 24.3277 16.9722 24.3277 17.3682C24.3277 23.3814 31.867 28.7641 33.5315 28.6696C35.4472 28.5608 42.5519 23.2048 42.5519 16.9164C42.5519 12.1916 42.7618 10.7023 42.2342 10.3643C41.7432 10.0497 40.613 10.7327 38.0798 10.7327C36.3258 10.7327 35.1951 10.1104 34.4262 9.68733C34.0491 9.47985 33.7591 9.32025 33.5253 9.30538C33.3514 9.29485 33.0181 9.45818 32.5699 9.67777ZM9.57865 38.784C10.3964 39.7719 11.2575 40.62 12.7118 40.1744C13.1868 39.014 12.9506 37.2733 12.6956 35.3938C12.4254 33.4015 12.1339 31.2532 12.6459 29.4747C14.2959 23.7367 23.7901 22.5845 25.5472 30.3023C25.9013 31.8572 25.6694 33.5594 25.4514 35.1587C25.161 37.2897 24.8954 39.2382 26.0745 40.4126C29.9596 40.1682 31.0513 30.0394 30.5755 29.1112C30.4863 28.9386 30.1274 28.6742 29.6103 28.2932C28.1084 27.1867 25.2717 25.0967 23.8313 21.418C22.6283 18.3437 22.6757 11.3899 23.067 7.87396C24.1094 7.75894 24.3496 7.95864 24.731 8.27567C24.9284 8.43982 25.1637 8.63542 25.5678 8.83509C27.1581 9.6237 29.6773 9.57441 31.4139 8.68517C32.0212 8.37488 32.2606 8.09059 32.4851 7.824C32.6885 7.58242 32.8797 7.35538 33.3213 7.13668C33.9819 7.26765 34.2699 7.6431 34.5217 7.97121C34.8265 8.36858 35.0782 8.69652 35.8736 8.43667C36.1228 8.2313 36.0919 7.38313 36.0528 7.0032C36.0178 6.66228 35.8406 5.81822 35.7232 5.49989C35.4204 4.67431 34.6747 3.88159 34.1577 3.44004C30.2789 0.12241 26.1238 1.68254 22.3112 3.11409C21.7199 3.33611 21.1368 3.55504 20.5642 3.7522C20.282 3.84926 20.014 3.90984 19.7685 3.96536C19.032 4.13189 18.4971 4.25284 18.3828 5.17541C18.8604 5.49419 19.317 5.58019 19.7201 5.65611C20.3428 5.7734 20.8378 5.86664 21.0854 6.75675C19.4909 8.01347 17.734 6.61718 15.6567 4.96628C13.5823 3.31772 11.1885 1.41527 8.31798 1.64717C5.71217 1.85665 3.00337 3.40308 2.09082 4.97415C0.80693 7.18746 1.51462 9.87107 2.12409 12.1822C2.18249 12.4037 2.23999 12.6218 2.29476 12.8357C2.97247 15.4767 3.90562 17.477 5.08596 19.5492C6.84233 22.6363 6.84291 22.6631 6.91831 26.1327C6.92462 26.4231 6.93146 26.7376 6.93989 27.0801C7.02434 30.5241 7.40955 36.1615 9.57865 38.784ZM4.43708 21.3318C2.2515 17.3476 0 12.8706 0 7.65832C0 2.329 5.42378 0.000114031 9.74345 0.299953C10.9876 0.388261 12.0155 0.72712 13.0311 1.23849L15.0416 2.62678C16.3515 3.64788 16.7991 3.49599 18.3548 2.96801C18.5262 2.90982 18.7112 2.84707 18.9122 2.78081C19.663 2.53393 20.2832 2.31224 20.9366 2.07869C21.3051 1.947 21.6841 1.81153 22.103 1.66566C27.3373 -0.153913 31.0534 -1.09245 35.1588 2.43579C37.2253 4.20995 37.3203 5.70809 37.414 7.18557C37.4434 7.64924 37.4727 8.11088 37.5627 8.57837C37.8037 9.83113 39.4579 9.49021 40.6485 9.08974C41.0937 8.94078 41.4406 8.71109 41.7742 8.49024C42.3465 8.11127 42.8795 7.75837 43.8022 7.88423C43.8263 8.77063 43.8603 9.62547 43.8933 10.4531C44.1262 16.2983 44.305 20.785 40.5084 25.4371C38.8976 27.4128 36.9015 28.5895 34.683 29.795C34.0503 30.1388 33.6681 30.1559 33.3051 30.1721C32.972 30.187 32.6552 30.2012 32.176 30.4666C32.0728 30.5799 31.9882 31.1517 31.8653 31.9828C31.5737 33.9541 31.0664 37.384 29.5826 39.6117C28.9708 40.5317 27.7596 42.111 26.0992 41.9693C23.0109 41.7046 23.7597 36.9499 24.1612 34.4001C24.2426 33.8835 24.3097 33.4574 24.3277 33.1775C24.9251 23.8927 13.783 24.5848 13.783 31.5961C13.783 32.7638 13.9379 34.0463 14.0895 35.3015C14.4467 38.2586 14.7856 41.064 13.0373 41.8584C10.8434 42.8545 7.97397 39.7041 6.85543 36.5332C5.84195 33.6642 5.57416 29.5281 5.54738 26.1826C5.54644 26.0584 5.54566 25.9398 5.54491 25.8263C5.52918 23.4421 5.52839 23.3235 4.43708 21.3318ZM30.5484 20.7806C29.6329 19.8422 28.4543 18.6341 29.2242 17.6496C30.1625 17.8559 30.7652 18.6548 31.3775 19.4664C31.8808 20.1336 32.3907 20.8094 33.0989 21.1717C34.1639 20.3071 36.3041 16.822 37.1981 15.3639C37.2665 15.2518 37.3294 15.1373 37.3911 15.0247C37.7369 14.3946 38.0492 13.8254 39.1118 14.0885C39.3378 15.0244 38.6689 15.957 37.883 17.0527C37.5945 17.4549 37.2902 17.8791 37.0086 18.3335C36.6144 18.9692 36.1662 19.6239 35.7208 20.2745C35.2538 20.9567 34.7899 21.6343 34.3946 22.2807C33.3487 23.9925 33.1103 23.714 31.3825 21.6955C31.2965 21.5951 31.2068 21.4903 31.1131 21.3812C30.957 21.1994 30.7597 20.9972 30.5484 20.7806Z" fill="black"/>
</svg>
