<svg width="41" height="39" viewBox="0 0 41 39" fill="none" xmlns="http://www.w3.org/2000/svg">
<path fill-rule="evenodd" clip-rule="evenodd" d="M26.053 30.8739C26.3679 32.2656 26.663 35.3064 26.0279 36.5396C25.1534 37.1373 21.3226 36.7934 19.849 36.7934C16.0488 36.7934 16.083 37.5658 16.0866 33.9165C16.0902 30.1502 15.6961 30.7281 19.4531 30.7299C21.1229 30.7299 24.7485 30.5247 26.053 30.8739ZM37.7703 32.4708C36.5881 32.8633 27.9801 30.0638 26.3014 29.6371C25.0832 29.3274 20.6119 29.5165 19.0573 29.5165C15.7807 29.5165 15.8365 29.7235 13.8176 27.6783C11.3076 25.138 9.04759 22.9002 6.60771 20.4391L1.67395 15.4756C0.941624 14.489 1.15035 13.2252 2.53943 12.7463C3.60643 12.3772 4.33335 13.1945 4.84076 13.6968L15.6169 24.4881C16.2071 25.0966 16.657 25.8888 17.6664 25.9698C19.813 26.1426 22.7477 25.9338 24.9968 25.9554C26.8717 25.9734 34.1212 28.1428 36.4496 28.7783C40.4639 29.8747 38.6357 32.1846 37.7703 32.4708ZM13.2832 1.84519C14.505 0.827996 16.5562 1.05843 17.3893 2.12783C18.566 3.64012 17.8571 7.39924 15.7789 5.12181C14.8972 4.15502 13.4074 3.13784 13.2832 1.84519ZM14.6075 5.70331C15.5971 6.6845 16.6336 8.85393 18.0982 6.81954C20.3816 3.64733 18.2188 2.4771 20.0379 2.26106C21.8588 2.04502 24.7863 2.05762 26.0386 2.73995C26.5155 4.79055 26.1862 11.2754 26.188 13.9219L26.1196 23.6113C25.9883 25.4099 24.4462 24.7473 20.8368 24.7473C16.97 24.7473 18.019 25.0642 15.5378 22.5851L12.9575 20.0232C11.4065 18.4768 5.23482 11.8965 3.85833 11.5004C0.948818 10.6633 -1.39391 14.1001 0.970412 16.5774L11.0574 26.6773C15.0717 30.6309 14.8828 29.7109 14.8738 32.9263C14.8702 34.2046 14.6453 36.7034 15.025 37.7242C15.7987 38.1365 25.9631 38.3111 27.1578 37.8773C28.1331 36.5648 27.1686 33.4232 27.6221 31.6031C30.0116 31.0324 36.1833 34.8545 38.7257 33.4106C40.6168 32.3376 41.0774 29.0466 37.8764 27.9592C35.2656 27.0734 28.6729 25.6637 27.372 24.8374C27.2388 23.7067 27.1398 18.1905 27.5177 17.5028C28.3112 16.2047 36.7878 17.555 39.1648 16.8294C39.4347 15.4252 38.3443 15.76 37.0595 15.7726L28.932 15.7906C27.8272 15.7744 27.8488 15.7186 27.5915 15.4306C27.165 14.8905 27.3702 8.2742 27.3935 6.98696C27.4421 4.39986 28.0917 1.4239 25.1804 1.09083C21.409 0.658752 20.189 1.80198 17.1374 0.399509C15.1941 -0.493461 11.6008 0.106051 11.5307 2.24306L14.6075 5.70331Z" fill="black"/>
</svg>
