<svg width="39" height="39" viewBox="0 0 39 39" fill="none" xmlns="http://www.w3.org/2000/svg">
<path fill-rule="evenodd" clip-rule="evenodd" d="M11.2727 8.7485C12.0236 8.31826 11.8057 6.96363 11.6004 5.68738C11.45 4.75265 11.3064 3.85996 11.5552 3.40328C12.4764 2.4509 14.4323 1.84599 16.0481 1.60474L16.3767 1.55532C18.7346 1.20024 19.0289 1.15592 21.5936 1.54713C27.0629 2.37859 26.8434 3.68409 26.502 5.71426C26.3541 6.59415 26.1833 7.61016 26.4428 8.78271C27.5128 8.64763 27.5242 8.38396 27.5733 7.2547C27.5948 6.75843 27.6236 6.09499 27.7527 5.20182C27.7786 5.02226 27.8052 4.85394 27.8302 4.69546C28.0364 3.38892 28.1371 2.75067 26.8854 1.98641C25.0231 0.846795 21.8347 0.108654 19.3768 0.00963537C16.7336 -0.0983852 13.6712 0.71537 11.6721 1.77217C10.2398 2.53012 9.93396 2.86678 10.2488 4.77874C10.3054 5.1245 10.3264 5.52817 10.348 5.9452C10.407 7.08077 10.4712 8.31528 11.2727 8.7485ZM15.4912 12.8809C14.9411 12.4379 14.3648 11.9738 13.4478 11.6434C12.2373 12.2281 12.3128 13.236 12.3842 14.1886C12.4359 14.8785 12.4854 15.5395 12.0425 15.9894C11.841 16.1958 11.6396 16.3058 11.4578 16.4052C11.0861 16.6084 10.7959 16.767 10.7524 17.6133C10.6509 19.5936 11.648 19.9488 12.2112 20.1494L12.2113 20.1495C12.2871 20.1764 12.355 20.2006 12.4113 20.2256C12.6917 20.3496 12.8174 20.3719 12.8754 20.3822C12.9008 20.3868 12.9132 20.389 12.92 20.3964C12.9265 20.4035 12.9278 20.4154 12.9303 20.4387C12.9366 20.4976 12.9507 20.6296 13.0771 20.9422C13.8166 22.7695 14.7109 24.6509 16.7837 25.551C22.2572 27.9302 24.6144 21.956 25.0701 20.801C25.1123 20.6939 25.1383 20.6283 25.1488 20.6145C25.2012 20.5463 25.3486 20.4717 25.5441 20.3728C26.2821 19.9994 27.7037 19.2802 27.2684 17.2533C27.1485 16.6973 26.8264 16.4953 26.4908 16.2848C26.3982 16.2267 26.3046 16.168 26.214 16.101C25.5545 15.6155 25.6127 15.0071 25.6794 14.3101C25.7539 13.5314 25.8389 12.6421 24.9455 11.6902C24.0909 11.7122 23.4934 12.1884 22.825 12.7211C21.9651 13.4065 20.9878 14.1854 19.1948 14.2107C17.1781 14.2394 16.368 13.587 15.4912 12.8809ZM25.4678 22.8719C24.3854 24.7866 22.9488 27.328 18.79 27.328C14.8679 27.328 13.1513 23.9829 12.39 22.4993C12.2635 22.2527 12.1634 22.0576 12.0839 21.9378C11.7868 21.4897 11.6267 21.4061 11.4044 21.2899C11.2497 21.2091 11.065 21.1125 10.7829 20.8666C10.0146 20.1968 9.41366 18.8394 9.49463 17.4171C9.56047 16.2578 9.99023 15.8836 10.3978 15.5288C10.7365 15.234 11.0599 14.9524 11.1464 14.2449C11.1823 13.9523 11.2071 13.6712 11.2307 13.4031C11.3347 12.2211 11.4165 11.2911 12.3376 10.7378C13.656 9.94614 14.6824 10.7219 15.8131 11.5765C16.7317 12.2708 17.7192 13.0171 18.9879 13.0171C20.4091 13.0171 20.9588 12.549 21.6421 11.9673C21.8447 11.7948 22.059 11.6124 22.3112 11.4292C26.4116 8.44816 26.7465 12.4165 26.8794 13.9926C26.8948 14.1746 26.9075 14.3247 26.9229 14.4285C27.0097 15.0132 27.2961 15.2244 27.6084 15.4549C28.028 15.7643 28.4945 16.1084 28.5873 17.4387C28.6845 18.8286 28.0313 20.2976 27.2576 20.9314C26.9903 21.15 26.8135 21.2418 26.6686 21.3171C26.434 21.439 26.2827 21.5176 25.9657 22.0206C25.8023 22.2801 25.6395 22.5681 25.4678 22.8719ZM1.20015 38.3119C0.365261 38.2669 0 33.9173 0 33.0477C0 30.0853 2.94 29.5159 6.39175 28.8474L6.39179 28.8474C7.81938 28.5709 9.33451 28.2774 10.7654 27.7907L10.7894 27.7825L10.7895 27.7825C12.4677 27.212 13.0751 27.0055 13.36 27.2225C13.5216 27.3456 13.5794 27.605 13.6699 28.0115C13.7985 28.5887 13.9931 29.4626 14.6447 30.6641C17.1026 35.1973 20.4782 35.5736 22.9612 31.485C23.4768 30.6357 23.8127 29.6783 24.097 28.8683C24.4388 27.8943 24.7059 27.1334 25.1204 27.0292C25.5959 27.099 26.2226 27.3421 26.8796 27.597L26.8797 27.597L26.8797 27.597L26.8797 27.5971C27.5107 27.8419 28.1697 28.0975 28.7497 28.221C29.358 28.3506 29.9295 28.4701 30.4662 28.5824L30.4665 28.5824C37.8777 30.1325 38.635 30.2909 37.6635 36.2757C37.6194 36.5473 37.5987 36.7961 37.5801 37.0194C37.5161 37.7877 37.4773 38.2539 36.5947 38.3083C36.0511 37.6446 36.3227 36.3707 36.577 35.1774L36.577 35.1774C36.7125 34.5419 36.843 33.9293 36.843 33.4438C36.843 31.1137 35.0401 30.774 32.6143 30.3169C32.3955 30.2757 32.1716 30.2335 31.9435 30.1888C31.288 30.0603 30.3255 29.8055 29.3379 29.5441C27.8614 29.1532 26.3287 28.7474 25.6818 28.7269C25.3716 29.1184 25.2054 29.5743 25.0256 30.0673C24.902 30.4065 24.7719 30.7632 24.5842 31.1286C21.8474 36.4558 17.3995 36.8212 14.7113 33.1665C14.3011 32.6102 13.7397 31.7011 13.4446 31.0691C13.299 30.7576 13.1893 30.4724 13.0852 30.2017C12.8933 29.7029 12.7205 29.2536 12.3776 28.7809L2.99228 30.9071C2.24016 31.2204 1.21094 32.0359 1.21094 32.8497C1.21094 33.3864 1.33954 34.1515 1.47203 34.9398C1.75061 36.5972 2.04641 38.3571 1.20015 38.3119ZM25.2346 38.3866C25.1 38.2966 25.015 38.1325 24.7729 37.8366C24.9889 37.3541 25.1652 37.1921 25.9119 37.1903C26.3305 37.1903 26.7784 37.1747 27.2319 37.159C28.944 37.0995 30.7358 37.0373 31.3333 37.7988C30.968 38.3875 30.8619 38.4847 29.8686 38.4847H26.9016C25.7554 38.489 25.4382 38.5227 25.2346 38.3866Z" fill="black"/>
</svg>
