<svg width="38" height="38" viewBox="0 0 38 38" fill="none" xmlns="http://www.w3.org/2000/svg">
<path fill-rule="evenodd" clip-rule="evenodd" d="M26.5941 32.6456C26.9126 32.4533 27.2693 32.3207 27.6444 32.1813C28.0874 32.0167 28.556 31.8426 29.0178 31.5492L30.979 30.0909C31.8931 30.5338 33.1004 33.4864 33.1652 33.9743C32.5732 34.4154 29.5666 36.0303 28.5823 36.0591C28.5237 35.984 28.4548 35.8978 28.3785 35.8024C27.76 35.0289 26.6565 33.6489 26.5941 32.6456ZM17.736 33.9023C17.7504 33.0219 18.9847 31.0145 19.5029 30.3394C20.1166 30.394 20.2831 30.55 20.5833 30.8314C20.8077 31.0417 21.1068 31.322 21.7233 31.6824C22.1077 31.9065 22.4363 32.0232 22.7368 32.1299C23.2016 32.2949 23.5991 32.4361 24.0318 32.9139C23.8915 33.5782 22.6895 35.474 22.0832 36.0195C21.4592 36.0482 20.8976 35.749 20.2838 35.4219L20.2837 35.4218L20.2837 35.4218C20.0904 35.3188 19.8919 35.213 19.6847 35.1139C19.4485 34.9999 19.26 34.9161 19.1 34.8449C18.5648 34.607 18.3482 34.5106 17.736 33.9023ZM24.0138 19.5661C31.3947 17.908 34.4877 29.2376 26.5545 31.2576C23.0386 32.1523 20.0697 29.2772 19.4202 26.6739C18.5421 23.1596 21.3382 20.1674 24.0138 19.5661ZM1.21095 2.6231C1.21395 1.03656 2.29036 1.11568 3.87285 1.23199L3.87285 1.23199L3.87286 1.23199L3.87286 1.23199C4.18488 1.25492 4.51657 1.2793 4.86358 1.29265L13.3708 1.30345L13.6967 1.29369C18.2879 1.15616 22.9149 1.01756 27.4955 1.41327C27.8323 2.29167 27.7668 3.61458 27.7002 4.96C27.5991 7.00081 27.4955 9.09343 28.7893 9.76506C29.5464 10.1579 31.1656 10.097 32.4124 10.0501H32.4124L32.4124 10.0501C32.7656 10.0369 33.0888 10.0247 33.3542 10.0243L33.678 10.0237C35.5224 10.02 36.1565 10.0187 36.3641 10.3156C36.4729 10.4712 36.4646 10.7086 36.4519 11.0703V11.0704V11.0704C36.4472 11.2063 36.4418 11.3598 36.4418 11.533V23.6097C36.4418 25.804 36.153 25.8028 33.9054 25.793C33.7926 25.7925 33.6749 25.792 33.5521 25.7917C32.4853 25.7891 32.4419 25.3534 32.3602 24.5328C32.272 23.6482 32.1393 22.3163 30.6318 20.5977C27.9202 17.5047 22.9055 17.2095 19.6271 20.9632C18.303 22.4794 18.2218 23.6728 18.1653 24.5032C18.1043 25.3994 18.0721 25.8727 16.5376 25.8727C14.1481 25.8727 2.6756 25.8295 1.3477 25.4911L1.21095 2.6231ZM29.007 3.81133C29.007 1.9089 30.5596 3.65216 31.5141 4.72391C31.7366 4.97371 31.9266 5.18704 32.0568 5.30921C32.16 5.40575 32.2799 5.51509 32.4108 5.63449C33.3319 6.47473 34.7994 7.81335 34.853 8.69926C32.9277 8.9369 31.0834 8.96571 29.1995 8.57503C28.8879 7.71398 28.9397 6.15211 28.9817 4.88188C28.9948 4.48688 29.007 4.12008 29.007 3.81133ZM0 2.6231V24.4C0 27.0668 1.61384 27.0134 3.72655 26.9436C4.21541 26.9274 4.73097 26.9104 5.25944 26.9259C7.80909 27.0015 10.5171 27.0592 12.9714 27.0862C13.2886 27.0898 13.6881 27.0691 14.1283 27.0463C16.2999 26.9338 19.4608 26.77 18.6051 29.225C18.5195 29.4698 18.1476 30.1101 17.788 30.7293L17.788 30.7294C17.5578 31.1257 17.3326 31.5135 17.1908 31.7833C17.0703 32.0129 16.936 32.23 16.802 32.4467C16.4317 33.0453 16.0639 33.6399 15.9978 34.482C16.5077 35.0208 17.3481 35.4066 18.1982 35.7969L18.1985 35.797C18.4703 35.9218 18.743 36.0471 19.0063 36.1779C19.0935 36.2211 19.1936 36.2713 19.3037 36.3266C20.1938 36.773 21.7454 37.5512 22.5348 37.6794C22.981 37.0712 23.34 36.4959 23.6575 35.9871C24.3615 34.8589 24.8611 34.0581 25.6548 33.9527C26.0177 34.4026 26.3211 34.9367 26.6268 35.475L26.6268 35.475C27.0819 36.2765 27.5422 37.0869 28.2117 37.6416C29.0286 37.5606 34.0901 35.2291 34.853 34.419C34.641 33.6688 34.0743 32.6411 33.4984 31.5968C32.5635 29.9017 31.6046 28.1628 32.1 27.4966C32.3977 27.0951 33.3692 27.0441 34.3895 26.9904C35.4233 26.9361 36.507 26.8792 36.9906 26.4524C37.2281 26.2436 37.6563 25.5847 37.6563 24.9924V9.55262C37.6563 8.95057 34.0339 5.41899 31.5385 2.98615L31.5384 2.98608C30.5416 2.01422 29.7246 1.21772 29.3902 0.853362C28.7695 0.176433 28.523 0 27.6197 0H3.27838C1.04181 0 0 0.313259 0 2.6231ZM4.83301 6.78199C5.58562 7.324 13.1783 7.2104 17.5807 7.14453C18.662 7.12835 19.5507 7.11505 20.0985 7.11505C20.2128 7.11505 20.3939 7.12261 20.6178 7.13196C22.0514 7.19178 25.2399 7.32483 23.8735 6.01684C23.6094 5.7633 15.6287 5.79164 10.4888 5.8099H10.4887H10.4886H10.4886C8.73063 5.81614 7.30502 5.82121 6.63414 5.81341C6.46892 5.81139 6.31555 5.80541 6.17381 5.79987C5.30144 5.76582 4.87016 5.74899 4.83301 6.78199ZM25.8888 27.8315C29.4749 26.7621 27.2779 22.0056 24.7193 23.0065C23.359 23.5394 22.3694 24.526 22.8354 26.0095C23.197 27.1653 24.3054 28.3031 25.8888 27.8315ZM26.1479 29.0647C21.6532 30.2673 19.3159 23.1992 24.4224 21.7481C26.7579 21.0838 28.4763 22.8445 28.9063 24.4864C29.4947 26.7206 28.0714 28.5498 26.1479 29.0647ZM4.79688 10.2314C4.84726 11.227 4.91563 11.3188 5.85308 11.3188C6.30446 11.3188 7.20022 11.3253 8.36211 11.3338H8.36226C13.3003 11.3698 23.0452 11.4409 23.9147 11.1946L24.1936 10.5248C24.1149 10.4622 24.0523 10.4088 23.999 10.3633C23.7382 10.1407 23.6989 10.1071 23.0655 10.1071C22.3441 10.1068 21.2286 10.099 19.8936 10.0897H19.8935C14.8746 10.0547 6.75251 9.99815 4.79688 10.2314ZM17.1074 15.4734C12.0693 15.503 5.73165 15.5402 5.04543 15.3551C4.75873 14.8458 4.84899 14.6447 4.91599 14.4953C4.9314 14.461 4.94559 14.4294 4.95367 14.3974C6.1934 14.1129 23.3518 14.1759 23.9312 14.4154C23.9592 14.4805 24.0133 14.4545 24.0605 14.4317C24.1529 14.3873 24.2188 14.3555 24.0104 15.0455C23.9584 15.2185 23.9689 15.2545 23.9559 15.2681C23.9428 15.2819 23.9058 15.2729 23.7566 15.3587C23.5201 15.494 23.19 15.4804 22.8868 15.4679C22.8187 15.4651 22.7519 15.4624 22.6879 15.4614C21.6345 15.4468 19.5199 15.4592 17.1074 15.4734Z" fill="black"/>
</svg>
