<svg width="37" height="43" viewBox="0 0 37 43" fill="none" xmlns="http://www.w3.org/2000/svg">
<path fill-rule="evenodd" clip-rule="evenodd" d="M24.7122 41.4593C23.467 39.5758 24.9147 33.9746 24.4875 30.8566C24.0602 27.7489 21.3166 25.9188 17.848 25.8736C14.3491 25.8284 12.4376 28.2583 11.7876 31.4646C11.3584 33.5843 11.652 34.7797 11.9071 36.8666C12.144 38.7871 12.5166 40.7137 10.9008 41.5764C9.23836 40.4405 8.73013 39.7668 7.84527 37.5958C5.96014 32.9681 6.87739 26.8226 6.35701 24.2017C6.02493 22.5277 4.92747 20.4388 4.22485 18.9086C2.1595 14.4206 -1.38398 6.2991 5.08541 3.20579C6.23957 2.65327 10.1536 1.55233 10.998 3.09488C11.9314 4.79764 9.69395 9.57522 13.5088 12.2023C15.6915 13.7058 21.0574 13.8003 23.3272 12.2228C29.0009 8.2812 21.6284 0.315828 30.9123 3.12774C32.3479 3.56319 33.82 4.53062 34.5712 5.51859C36.833 8.49482 34.2715 16.0658 32.5484 19.3132C31.8741 20.5846 31.0682 21.7965 30.4729 23.3061C29.173 26.5925 31.3659 40.3604 24.7122 41.4593ZM24.3194 4.34781C25.2265 10.974 22.2136 12.4282 16.1249 11.7627C14.7196 11.6087 13.5796 10.4132 13.039 9.50333C12.2797 8.2278 12.472 6.23954 12.5146 4.60867C12.5814 1.99599 14.4159 4.16706 20.0915 5.09341C22.9445 5.55967 22.3999 4.31495 24.3194 4.34781ZM36.7925 10.7316C38.463 3.07639 29.6751 -0.947376 23.4852 2.67381C21.1546 4.03766 21.6588 3.9555 18.5992 3.40503C17.0259 3.12158 15.4891 2.47046 13.9603 2.03296C10.4391 1.02651 7.25604 0.272694 4.05678 2.15826C-2.46119 6.00127 0.167056 13.3073 3.02411 19.6726C5.28384 24.7049 4.7756 23.8073 5.16032 29.9303C5.41141 33.9397 5.77183 36.8235 7.37146 39.8798C9.49754 43.9426 13.1159 44.074 13.4116 39.8695C13.6829 36.0347 11.8504 32.4115 14.2033 29.1641C16.6149 25.8387 21.0331 27.3587 22.414 29.3695C24.3923 32.2513 22.4262 37.0576 22.7583 40.2968C23.305 45.6125 30.9042 43.5605 31.2646 29.6899C31.4185 23.7601 31.3962 24.3537 33.8362 19.9438C35.124 17.6207 36.1708 13.5805 36.7925 10.7316Z" fill="black"/>
</svg>
