<svg width="45" height="42" viewBox="0 0 45 42" fill="none" xmlns="http://www.w3.org/2000/svg">
<path fill-rule="evenodd" clip-rule="evenodd" d="M23.4519 19.7196C23.0625 19.1966 22.9038 16.987 23.5549 16.499C24.2988 15.943 26.2912 16.291 26.9217 16.5155C27.9396 19.9482 24.6016 21.089 23.4519 19.7196ZM17.9217 17.7531C17.9217 16.6349 18.2143 16.2869 19.3434 16.2869C21.7294 16.2869 21.6861 16.1778 21.7418 17.9713C21.7788 19.141 21.8613 19.2069 21.4698 20.0676C19.5783 20.3209 17.9217 20.3148 17.9217 17.7531ZM30.8922 16.2787C32.658 16.2972 35.9876 16.0789 37.158 16.4763C37.4918 17.8004 35.4931 20.704 35.0666 22.1578C34.2486 24.9521 35.6003 39.6098 29.6724 40.4767C27.8345 37.2561 30.1854 34.3937 29.3221 30.4441C27.9004 23.9349 21.8592 23.972 18.7974 26.0435C13.5927 29.5689 17.8104 36.9719 16.4238 40.1802C14.4066 40.8453 12.8077 38.4175 12.1484 36.7124C9.83242 30.7283 11.4602 25.0345 10.2754 22.2875C8.52404 18.2246 5.85165 16.3281 9.12981 16.2684C9.81593 16.256 10.4073 16.2498 10.9904 16.2189C20.5859 15.7082 13.8317 18.9536 18.1834 21.1776C19.5762 21.8901 24.0659 21.8427 25.8091 21.4968C29.2912 20.8048 27.9128 17.9487 28.842 16.6246C29.283 16.1695 29.8867 16.2684 30.8922 16.2787ZM23.1964 12.3188C23.1964 9.96093 27.0824 10.3584 27.0824 13.4513C27.0824 14.8104 26.4808 14.8063 25.2342 14.8063C23.1552 14.8063 23.1964 14.9649 23.1964 12.3188ZM18.1669 14.6436C16.706 10.6281 21.4059 9.77561 21.7191 12.0717C21.9375 13.6717 21.7788 14.0918 21.2843 14.5201C20.693 15.0575 18.851 14.8537 18.1669 14.6436ZM10.2795 14.899C8.07898 14.899 6.73764 15.2532 6.17308 13.2598C5.66415 11.4683 5.32624 10.7661 5.1408 8.6698C4.52885 1.76314 13.3043 -0.417591 18.1751 3.75235C19.5948 4.9673 23.59 8.29296 25.601 6.59821C24.8922 4.83139 23.114 6.18019 22.5474 4.61929C22.5371 3.88003 25.601 3.10369 27.0103 2.55182C36.7747 -1.266 41.7837 4.97966 39.2205 12.259C38.3262 14.796 38.8681 14.8042 35.8805 14.8042C34.5536 14.8042 29.524 15.1873 28.8565 14.5798C28.09 13.8817 29.6229 9.43995 24.3255 9.43995C14.7404 9.43995 17.4519 11.0482 16.2012 14.7033L10.2795 14.899ZM0 15.4529C0.171016 17.3268 4.30014 15.2985 5.69093 16.6802C5.96497 16.952 8.0831 21.0478 8.46429 21.8324C10.2569 25.539 8.58997 29.7955 10.3331 35.8187C10.943 37.9232 11.864 39.6345 13.1683 40.6867C14.763 41.9717 17.1717 42.9869 17.9712 40.1637C19.09 36.2161 15.2967 30.2073 19.5762 27.2708C24.0948 24.1717 28.0879 27.8289 28.1065 32.4766C28.1168 34.7191 27.1545 37.4146 27.6326 39.5727C28.2054 42.1591 30.4492 42.7501 32.182 40.9997C37.5103 35.619 35.2356 25.1416 36.7521 21.7933C37.2651 20.6607 38.6827 17.0653 39.4224 16.5155C41.1346 15.77 43.2177 16.9273 45 15.7968C44.1223 13.6531 42.0165 15.6053 40.5165 14.6766C39.8056 14.238 40.8771 11.4827 41.0337 10.4716C41.6023 6.79384 40.8977 4.27127 38.8475 2.32942C34.0137 -2.24826 27.8716 1.03828 22.465 2.7598C18.0288 4.17244 20.0398 2.03289 14.9299 0.424628C11.7837 -0.565863 2.4581 0.507006 3.9478 10.0351C4.54327 13.8467 6.36882 15.1276 2.34684 14.8846C0.879808 14.796 0.593407 14.4851 0 15.4529Z" fill="black"/>
</svg>
