<svg width="42" height="41" viewBox="0 0 42 41" fill="none" xmlns="http://www.w3.org/2000/svg">
<path fill-rule="evenodd" clip-rule="evenodd" d="M33.6945 35.8121L33.6944 35.812L33.6941 35.8117C33.4268 35.5348 33.1979 35.2977 33.0311 35.1308C32.472 34.5727 32.0034 34.1197 31.6168 33.746C30.5139 32.6797 30.0786 32.2589 30.1153 31.8843C30.1392 31.6401 30.3636 31.4156 30.7343 31.0446C30.7914 30.9875 30.852 30.9268 30.9159 30.8621C32.0906 29.6716 32.2719 29.6868 33.3653 30.847C33.541 31.0336 33.969 31.4419 34.5183 31.9658L34.5184 31.966L34.5185 31.9661C36.2604 33.6276 39.2222 36.4528 39.2294 37.0677C39.0821 37.7574 37.9225 38.8666 37.3257 39.1538C36.5755 38.796 34.804 36.9612 33.6945 35.8121ZM16.3588 1.46507C21.6751 0.88684 25.8375 2.75569 28.9518 5.34449C39.8224 14.3788 35.0896 32.7177 20.1019 34.8133C17.7941 35.1365 14.7346 34.7907 12.7384 34.0291C11.677 33.6248 10.7629 33.2204 9.88288 32.7328C-3.90557 25.0855 -0.285174 3.27345 16.3588 1.46507ZM0 18.3678C0 30.6713 12.9348 39.511 24.338 35.0836C24.9355 34.8512 25.7246 34.4333 26.4854 34.0303L26.4855 34.0303C27.4634 33.5123 28.3946 33.0191 28.812 32.9766C29.1746 33.0315 30.7636 34.6884 32.481 36.4792C34.5474 38.6338 36.7997 40.9823 37.3257 40.9679C37.862 40.7449 40.9102 37.8783 41.0764 37.0677C41.0748 36.4638 38.6152 34.1409 37.5423 33.1277L37.5422 33.1276C37.3395 32.9362 37.1862 32.7914 37.1085 32.7139C36.3936 32.0006 35.7945 31.4186 35.2975 30.9357C33.7691 29.451 33.2054 28.9033 33.2058 28.3561C33.206 28.0363 33.3988 27.7166 33.7044 27.2101C33.8568 26.9574 34.0373 26.6581 34.236 26.2892C38.8309 17.7575 35.371 6.34221 25.5844 1.65214C14.4834 -3.66718 0 4.37511 0 18.3678ZM14.2928 24.2144C14.0914 24.9715 14.1689 26.0465 14.2434 27.0791C14.3247 28.2062 14.4023 29.2827 14.1096 29.8399C13.4958 30.0534 13.154 29.6717 12.78 29.0065C12.5836 28.657 12.1851 27.6328 12.0907 27.2114C11.7102 25.5044 11.7285 24.4808 11.7443 23.5925C11.7676 22.285 11.7857 21.2704 10.5194 18.8006C9.63179 17.0697 7.83954 13.0618 9.2163 11.2232C9.93774 10.2595 11.424 9.7304 12.8216 9.83433C13.6515 9.89607 14.666 10.5965 15.6796 11.2963C17.0857 12.267 18.49 13.2366 19.3976 12.4987C19.7374 12.1574 19.4766 11.7988 19.2054 11.4262C19.0848 11.2604 18.9622 11.0919 18.8896 10.9209C24.3891 8.14878 28.5949 10.2009 25.8791 16.8808C25.5483 17.6951 25.2661 18.2746 25.0287 18.7621C24.3678 20.1195 24.0543 20.7632 24.0057 23.776C23.9812 25.2348 23.8962 26.1853 23.4826 27.578C23.4691 27.6234 23.4552 27.6704 23.441 27.7189L23.4409 27.7191C23.1843 28.5927 22.7955 29.9164 21.8168 29.9325C21.4852 29.2878 21.5681 28.3327 21.6558 27.3218C21.7425 26.3236 21.8338 25.2709 21.5354 24.4091C20.1209 20.3312 14.9991 21.5576 14.2928 24.2144ZM22.3721 8.53614C20.7608 8.81221 19.3784 9.32183 18.405 9.68067L18.405 9.68068C17.8393 9.88922 17.4118 10.0468 17.1577 10.0781C16.2644 10.1873 15.9843 9.95249 15.5763 9.61052C15.384 9.44935 15.1634 9.26437 14.8367 9.08036C12.9273 8.00704 9.03878 8.43221 7.781 11.0305C6.89903 12.854 7.60537 14.993 8.19271 16.7598C8.64306 18.1106 9.16706 19.0675 9.57826 19.8185L9.57827 19.8185C9.91201 20.428 10.1715 20.9018 10.2569 21.3403C10.3661 21.9021 10.4126 22.6968 10.4654 23.5972C10.6409 26.591 10.8848 30.7535 13.7262 31.4102C15.8173 31.8939 15.6648 29.8146 15.5078 27.6747C15.3987 26.1871 15.2874 24.6702 15.9264 23.965C17.0085 22.7708 20.9575 21.7579 20.3796 27.5874C19.7167 34.2597 24.2984 31.5954 25.0595 26.6634C25.172 25.9316 25.183 25.0892 25.1941 24.2376V24.2376C25.2113 22.9165 25.2288 21.5733 25.6261 20.5863C25.8834 19.9478 26.1447 19.3732 26.4075 18.7953C26.8237 17.8801 27.2438 16.9563 27.6582 15.7564C29.1502 11.4405 26.5515 7.82186 22.3721 8.53614ZM21.5009 4.74012C20.5093 4.44697 20.328 4.39339 20.5761 3.40767C22.2683 2.69339 26.8178 5.61854 28.4741 7.27575C28.6254 7.42715 28.7686 7.56846 28.905 7.70313C29.8259 8.6122 30.4403 9.21871 31.1937 10.5864C31.2193 10.6328 31.2467 10.6822 31.2757 10.7344C31.8346 11.742 32.9685 13.786 32.595 14.8154C31.559 14.9082 31.4885 14.6751 31.2729 13.9624C31.2118 13.7605 31.139 13.52 31.0294 13.2375C29.8358 10.1707 27.0464 7.07734 24.0454 5.68657C22.8891 5.15053 22.0642 4.90666 21.5009 4.74012Z" fill="black"/>
</svg>
