<svg width="43" height="42" viewBox="0 0 43 42" fill="none" xmlns="http://www.w3.org/2000/svg">
<path fill-rule="evenodd" clip-rule="evenodd" d="M41.443 17.0467C41.2564 12.8027 37.0209 8.67636 32.6394 9.16122C20.7053 10.4859 23.2499 26.8635 33.4829 26.121C37.986 25.7944 41.668 22.1387 41.443 17.0467ZM19.6557 3.88699C18.9988 4.04264 18.6499 4.12532 18.4061 5.01053C18.6819 5.20553 19.1598 5.34986 19.6511 5.49822C20.55 5.76969 21.4936 6.05466 21.3257 6.68826C20.8183 8.63968 15.9117 5.21367 13.2736 3.37161C12.4862 2.82186 11.9009 2.41318 11.695 2.33065C8.85234 1.19256 6.19222 1.71191 3.84433 3.17661C1.32004 4.7529 1.01591 6.91749 1.66473 10.3703C2.50121 14.8158 3.88977 17.3224 5.02813 19.3774C6.07785 21.2723 6.91483 22.7832 6.90996 25.0762C6.90388 28.7704 7.06608 31.071 7.70273 34.4305C8.08391 36.451 10.0729 40.553 12.1775 39.8754C12.9554 39.4045 12.7661 37.6736 12.5292 35.5067C12.3283 33.6691 12.0931 31.5179 12.3843 29.5555C13.2156 23.9685 23.2519 21.6782 25.1172 30.152C25.5139 31.9571 25.2468 33.7465 25.0111 35.3257C24.6913 37.4682 24.4293 39.2238 25.9607 40.1067C28.8743 38.9463 29.9063 34.0308 30.3341 30.3224C30.5542 28.4144 30.7031 27.7665 30.4482 27.398C30.1889 27.0232 29.5119 26.9374 28.0673 26.1088C22.3111 22.8081 22.2239 15.2148 25.2855 11.4719C26.1736 10.3886 28.0227 8.934 29.4095 8.4532C31.8038 7.6239 32.9674 7.72601 33.9062 7.80838C34.4119 7.85275 34.8523 7.89139 35.3847 7.77562C35.8591 4.23964 32.0332 1.47049 28.414 1.49078C26.193 1.50344 23.5693 2.49277 21.3612 3.32536C21.092 3.42689 20.8289 3.52608 20.5735 3.62089C20.2131 3.75492 19.9111 3.82647 19.6557 3.88699ZM20.7993 2.10967C22.5606 1.37518 24.6091 0.520931 27.0657 0.243136C32.1751 -0.335037 36.3539 2.55178 36.7959 6.68014C37.0121 8.70412 37.553 9.0026 38.4075 9.47416C39.099 9.85574 39.9958 10.3507 41.0922 11.9648C45.4555 18.3876 41.2159 26.8006 34.0992 27.4437C33.1809 27.5268 32.7004 27.4127 32.4068 27.5968C31.9906 27.8577 31.9501 28.7179 31.5709 31.5883C30.4051 40.4252 25.4457 43.9064 23.7852 39.985C23.1885 38.575 23.4102 36.8573 23.6431 35.0536C23.9221 32.892 24.2171 30.6069 23.1384 28.5797C22.3537 27.1029 21.1656 26.0561 19.2759 26.0297C12.8405 25.939 13.4386 31.3477 13.9092 35.6029C14.0806 37.1527 14.235 38.5494 14.0266 39.4717C13.4954 41.8311 12.4695 41.9122 10.3466 40.9445C5.92864 38.928 5.5211 30.6206 5.54138 26.2082C5.55652 22.8725 4.75415 21.6136 3.80677 20.1272C3.23191 19.2252 2.60365 18.2395 2.07226 16.6552C1.9838 16.3914 1.88997 16.1169 1.793 15.8332C0.340948 11.585 -1.81518 5.27697 2.79001 2.12778C6.99715 -0.748886 11.1394 -0.0449326 14.9066 2.69378C16.5429 3.88462 18.406 3.1077 20.7993 2.10967ZM30.0475 16.8898C30.7166 16.922 31.4289 16.9562 32.0613 16.6876C32.34 16.2749 32.3695 15.3377 32.3976 14.4407C32.4412 13.0537 32.4818 11.7627 33.436 12.6546C33.9441 13.1303 33.8489 13.9148 33.7556 14.6844C33.6177 15.8219 33.4837 16.9268 35.3074 16.9534C35.6489 16.9583 35.9755 16.9316 36.2795 16.9067C37.2211 16.8297 37.9461 16.7704 38.225 17.7243C37.7639 18.4804 37.0101 18.4036 36.1958 18.3206C35.7605 18.2762 35.3079 18.2301 34.8735 18.3085C33.5337 18.5494 33.6582 19.556 33.7849 20.5796C33.8791 21.3404 33.9744 22.1107 33.4704 22.583C32.3762 23.6091 32.3441 21.5365 32.3198 19.9686C32.3104 19.3606 32.3022 18.8284 32.2336 18.5824C31.5406 18.3529 30.7945 18.3644 30.1119 18.375C29.0749 18.391 28.1843 18.4048 27.8481 17.5681C28.2841 16.8049 29.1248 16.8454 30.0475 16.8898Z" fill="black"/>
</svg>
