<svg width="47" height="43" viewBox="0 0 47 43" fill="none" xmlns="http://www.w3.org/2000/svg">
<path fill-rule="evenodd" clip-rule="evenodd" d="M25.2893 3.76429C24.5562 3.98316 23.9851 4.15365 23.5747 4.85067C23.6674 4.95968 23.72 5.0309 23.7563 5.07998L23.7563 5.08002C23.7903 5.12605 23.8099 5.1526 23.8348 5.17259C23.8687 5.19981 23.9124 5.21485 24.0156 5.25038C24.0915 5.27651 24.1997 5.31374 24.3598 5.37507C24.7575 5.52607 25.0772 5.6034 25.3369 5.66624C25.935 5.81093 26.2155 5.87879 26.3989 6.59207C26.3404 6.68187 26.2908 6.76144 26.2471 6.83139C26.1072 7.05567 26.029 7.18114 25.9176 7.22843C25.7761 7.28849 25.5811 7.22252 25.1385 7.07277C25.0754 7.0514 25.0072 7.02833 24.9334 7.00367C22.2998 6.12266 20.7186 4.8874 19.3683 3.83255C17.6826 2.51568 16.3569 1.47997 13.7928 1.76564C11.2534 2.04862 8.89391 3.72471 8.10677 5.47006C7.14361 7.60722 7.52532 10.9752 8.23335 13.247C8.33637 13.5771 8.43284 13.8894 8.52488 14.1873C9.2244 16.4517 9.6678 17.887 10.7846 20.0502C11.0288 20.5234 11.2396 20.9181 11.4222 21.26C12.501 23.28 12.5967 23.4592 12.798 27.1266C12.8364 27.8219 12.8635 28.4574 12.8889 29.0553C12.9877 31.3778 13.0624 33.1343 13.6899 35.6317C14.0756 37.1634 15.3275 40.191 17.0798 40.3414L17.9856 40.1158C18.4001 39.6657 18.2585 38.2572 18.0806 36.4887C17.7408 33.11 17.2688 28.4171 20.2896 26.5805C24.0612 24.289 28.9699 25.3595 30.0359 31.2466C30.2356 32.3545 30.0442 34.205 29.8984 35.6152L29.8984 35.6155C29.8694 35.8953 29.8423 36.1577 29.8204 36.3936C29.7999 36.6131 29.7763 36.8281 29.7533 37.0379L29.7533 37.038L29.7532 37.0383L29.7532 37.0386L29.7532 37.0387L29.7532 37.0388L29.7532 37.0389C29.5866 38.5557 29.4496 39.8031 30.7558 40.5452C33.9163 39.4331 35.008 31.9154 35.0357 27.9221C35.0384 27.5241 35.0385 27.1566 35.0385 26.8135V26.8124C35.0388 24.1901 35.0389 22.9986 36.2421 20.5647C38.8646 15.2594 42.4166 5.56504 36.3093 2.33753C33.8991 1.06395 32.2131 1.51448 29.8676 2.14125L29.8675 2.14127C29.6802 2.19132 29.4887 2.24249 29.2923 2.294C28.4999 2.50209 27.4999 2.91944 26.6584 3.27065C26.5316 3.32356 26.4084 3.37496 26.2901 3.42392C25.9283 3.5735 25.5947 3.6731 25.2893 3.76429ZM26.122 2.08214C27.6467 1.41774 29.359 0.671577 31.3155 0.366592C35.2473 -0.246853 38.3444 1.27291 39.8554 3.79397C41.5306 6.58415 41.3268 10.2114 40.2945 13.522C40.1773 13.8988 40.0682 14.2657 39.9611 14.6261C39.6107 15.8044 39.2808 16.914 38.7538 18.0793C38.5054 18.6283 38.2816 19.1159 38.08 19.5552C36.4781 23.0446 36.274 23.4894 36.2757 27.4808C36.2777 31.8106 35.6962 38.8711 32.2352 41.3704C30.5541 42.5835 29.1222 41.9186 28.5922 40.3038C28.1472 38.9542 28.432 36.3501 28.6377 34.949C29.1025 31.7769 28.4043 27.3364 25.0283 26.9129C21.1005 26.4202 18.9013 28.8918 18.9863 32.707C18.9959 33.1313 19.0911 33.8032 19.2037 34.5966C19.6275 37.5853 20.2959 42.2988 17.5485 42.0017C16.0375 41.8374 14.5107 40.4601 13.8857 39.5736C11.8394 36.6666 11.681 32.2217 11.5483 28.5019C11.4923 26.9295 11.4408 25.4867 11.2534 24.3444C11.1208 23.534 10.6156 22.5877 9.98246 21.4018L9.98245 21.4018C9.23651 20.0045 8.31303 18.2748 7.61234 16.0431C6.64522 12.964 5.54957 9.14677 6.53844 5.87374C8.13645 0.58229 14.926 -1.53508 20.1532 2.61853C21.8305 3.95222 23.749 3.11621 26.122 2.08214ZM23.8004 21.2197C25.4083 21.1841 28.0288 19.6861 27.4948 18.3523C26.5653 17.9546 20.7349 18.0377 19.7223 18.3998C19.6254 20.0502 21.8662 21.2612 23.8004 21.2197ZM22.9314 16.834C25.0142 16.8087 27.287 16.781 29.0493 17.0285C30.2696 23.7922 18.4783 24.4788 18.0887 18.103C18.0009 16.6625 18.9191 16.7261 20.0938 16.8073C20.3747 16.8268 20.6703 16.8472 20.9703 16.8484C21.587 16.8503 22.2488 16.8423 22.931 16.834H22.9311H22.9312H22.9312H22.9313H22.9313H22.9314H22.9314H22.9314ZM4.00697 23.8081C4.80483 23.6805 5.61108 23.0275 6.20319 22.5479L6.2032 22.5479L6.20577 22.5458C6.25561 22.5054 6.30392 22.4663 6.35058 22.4288C6.69432 22.1532 6.97472 21.9513 7.1982 21.7904C7.91339 21.2753 8.04579 21.18 7.80619 20.4322C7.06476 20.097 6.90236 20.2183 5.73107 21.0929L5.73101 21.0929C5.5401 21.2355 5.32238 21.398 5.07099 21.5819C4.9773 21.6509 4.88098 21.7188 4.78496 21.7865C4.02155 22.3247 3.27616 22.8501 4.00697 23.8081ZM1.51733 7.23529C0.358132 6.77064 -0.148677 6.56749 0.037674 5.45025C0.676484 5.12374 3.72615 6.5782 4.03666 6.7939C5.11255 7.53597 4.30365 7.97329 4.30365 7.97329C3.67472 8.18305 3.47299 8.10786 2.81044 7.79124C2.31512 7.55508 1.88365 7.38213 1.51733 7.23529ZM39.6516 20.0819C39.5376 21.005 39.7257 21.1226 40.4053 21.5474C40.6682 21.7117 41.0047 21.922 41.4257 22.2428C41.4926 22.2939 41.582 22.3713 41.6873 22.4625L41.6877 22.4629L41.6878 22.463C42.2885 22.9835 43.4078 23.9535 43.8603 23.0581C44.1236 22.5359 42.6497 21.4907 41.6125 20.7551C41.3643 20.5791 41.1412 20.4208 40.9728 20.2916C40.8367 20.187 40.7407 20.0989 40.6646 20.0291C40.3869 19.7742 40.3751 19.7634 39.6516 20.0819ZM2.43689 15.6531C0.848771 15.7046 0.743951 15.6848 0.261383 15.0773C0.498712 14.5549 0.676708 14.2719 1.39858 14.2719C2.06673 14.2719 2.61728 14.2609 3.07021 14.2518H3.07028H3.07033H3.07038C5.03052 14.2126 5.1622 14.21 5.08509 15.295C4.52897 15.6779 3.65943 15.6645 2.95503 15.6537H2.95501H2.95499H2.95497H2.95495C2.76758 15.6508 2.59189 15.6481 2.43689 15.6531ZM41.9246 14.266C42.3237 15.0939 42.6665 15.1393 43.3984 15.2364C43.6637 15.2715 43.9802 15.3135 44.369 15.4019C44.7253 15.4824 45.0302 15.6053 45.2987 15.7135C45.987 15.991 46.4362 16.172 46.8986 15.295C46.4536 14.1077 42.4803 13.4607 41.9246 14.266ZM42.4423 7.25886C41.1073 6.00823 46.1347 5.35521 46.997 5.55903C47.0303 6.60755 46.7875 6.64851 46.0669 6.77004C45.8042 6.81434 45.478 6.86935 45.0786 6.98776C45.0059 7.00923 44.9211 7.03576 44.8273 7.06514C44.1164 7.28758 42.8843 7.67314 42.4423 7.25886ZM29.6327 13.3023C29.8681 12.4771 29.9709 11.5332 29.4508 10.7634C28.4738 10.8406 28.4619 10.9376 28.4362 12.0418C28.4085 13.2132 28.4481 13.3953 29.6327 13.3023ZM17.7464 10.7595C19.3622 10.8288 18.9489 12.5464 18.5197 13.2687C17.6337 13.3874 17.5446 13.3657 17.4695 12.4791C17.4082 11.7351 17.5011 11.3571 17.7464 10.7595Z" fill="black"/>
</svg>
