<svg width="37" height="41" viewBox="0 0 37 41" fill="none" xmlns="http://www.w3.org/2000/svg">
<path fill-rule="evenodd" clip-rule="evenodd" d="M11.5637 39.5262C7.75026 39.6929 6.7624 31.1106 6.52913 27.1098C6.30803 23.312 6.9125 23.0387 5.34452 19.6749C4.45809 17.7739 3.39113 15.6841 2.68726 13.6847C1.90834 11.4784 1.05234 8.98263 1.71158 6.35629C2.93068 1.48741 8.24519 0.512828 13.1824 2.18669C14.8904 2.76541 18.716 3.59129 19.7992 4.22025C19.7039 4.92556 19.499 5.02001 18.8255 5.64696C18.4077 6.03478 18.1115 6.32213 17.7079 6.75014C15.4522 9.13937 14.7646 8.71337 16.8377 10.7148C21.6836 15.3887 21.6836 14.3961 18.7606 17.2957C18.217 17.8362 17.1886 18.4531 17.0324 19.3735C17.6693 20.0306 18.0061 19.916 18.716 19.2549C19.4361 18.5817 22.8054 15.5435 22.7952 14.8221C22.781 13.7028 17.5071 10.0999 17.5841 9.07707C18.0324 8.13665 21.6471 4.79696 22.3165 4.24637C26.8927 0.474649 32.477 0.906678 35.0024 4.87935C36.3695 7.02945 35.4142 10.2466 34.7874 12.6197C32.621 20.8122 30.3349 18.0372 30.1747 26.7461C30.1159 29.9351 29.3146 40.344 24.5275 39.3694C23.5437 36.3814 25.56 32.5695 24.6289 29.0791C22.8905 22.5624 13.4177 22.5685 11.9167 29.499C11.1763 32.899 13.0972 36.8295 11.5637 39.5262ZM0.023918 8.63097C0.285587 12.0732 1.69942 15.0532 2.94488 17.8403C5.61431 23.8163 4.96521 21.0132 5.19848 27.6403C5.32627 31.2794 6.57985 39.6327 10.1053 40.8122C12.2372 41.5256 13.152 40.0948 13.5313 38.4029C14.2737 35.0732 11.6956 31.5125 14.1581 27.7609C16.4685 24.2423 20.8154 25.6771 22.3104 27.3871C24.4849 29.8748 22.9291 34.3518 22.8865 37.579C22.8297 41.8652 25.564 41.4613 27.7061 39.8577C30.4079 37.8342 31.3086 32.1897 31.5135 28.5205C31.9516 20.6997 30.5925 25.1205 33.763 18.8972C43.4427 -0.0980407 28.8075 -1.41624 23.7952 1.50951C22.0305 2.53835 21.8418 3.12309 19.1623 2.43385C13.72 1.03528 8.53527 -1.37404 4.32625 1.00514C1.99963 2.32535 -0.258035 4.92154 0.023918 8.63097Z" fill="black"/>
</svg>
