<svg width="41" height="42" viewBox="0 0 41 42" fill="none" xmlns="http://www.w3.org/2000/svg">
<path fill-rule="evenodd" clip-rule="evenodd" d="M12.212 4.36935C12.0899 4.04419 11.9768 3.74278 11.7869 3.52631C10.9763 3.23507 9.13343 3.29435 7.7026 3.34037C7.24313 3.35515 6.82615 3.36856 6.49947 3.36856C6.3158 3.36856 6.03767 3.35884 5.70477 3.34721C4.28482 3.29762 1.86837 3.21321 1.53506 3.69944C1.22175 4.15648 1.32847 25.7295 1.3652 33.1543C1.37129 34.3866 1.37546 35.2292 1.37546 35.5209C1.37546 36.2221 1.35821 36.8067 1.34385 37.2937C1.28516 39.2833 1.27456 39.6426 2.68483 39.6705L38.5952 39.6493C39.0373 39.5853 39.1418 39.5716 39.2049 39.5132C39.2558 39.4661 39.2798 39.3901 39.4316 39.2357C39.7219 38.8201 39.9661 5.76367 39.5181 3.51284C38.3241 3.25313 30.3045 3.19927 29.2451 3.47821C28.8997 3.84819 28.7249 4.26018 28.5583 4.65294C28.2121 5.46919 27.9011 6.20233 26.1668 6.30234L14.7498 6.30618C12.894 6.18589 12.5239 5.2001 12.212 4.36935ZM21.555 1.26904C19.0622 1.22508 15.314 1.15898 14.4864 1.36781C13.1597 1.70255 13.0655 3.72061 13.7923 4.5363C14.6633 5.51551 26.6437 4.90181 26.6437 4.90181C27.6589 4.53629 27.9761 2.82028 27.2358 1.86415C26.656 1.11429 25.3656 1.19228 24.2564 1.25932C23.957 1.27741 23.6709 1.29471 23.4154 1.29471C23.0107 1.29471 22.3461 1.28299 21.555 1.26904ZM40.9446 39.5653C40.9952 40.4881 41.0204 40.9479 39.6931 40.9479C38.1034 40.9479 35.471 40.9605 32.2976 40.9758C20.471 41.0326 1.1293 41.1256 0.233384 40.7343C-0.080201 39.6726 -0.00695876 26.9799 0.0526678 16.6468C0.0826115 11.4576 0.109121 6.86349 0.0814823 4.63633C0.0664221 3.42946 -0.0305297 2.7569 0.259478 2.39126C0.784014 1.72992 2.57443 2.0726 8.40488 2.07384C8.65664 2.07384 8.94609 2.08794 9.25186 2.10284C10.3565 2.15668 11.6743 2.22089 12.1984 1.66792C12.4252 1.42859 12.5784 1.19745 12.7177 0.987387C13.0967 0.415654 13.3722 0 14.746 0H25.9515C27.434 0 27.7075 0.352721 28.1797 0.961612C28.3095 1.12898 28.4542 1.31571 28.6433 1.51979C29.3592 2.29226 32.5398 2.16126 35.4728 2.04045C37.967 1.93771 40.2822 1.84235 40.7506 2.31624C41.0975 2.66805 40.998 22.5851 40.945 33.1895C40.9319 35.8064 40.9217 37.8561 40.9217 38.9048C40.9217 39.1464 40.9337 39.3666 40.9446 39.5653ZM16.9155 31.2279C16.6491 28.8374 16.2871 25.5877 20.4914 25.1959C22.591 25.0016 23.7965 26.1558 24.4214 27.7449C24.9325 29.0444 24.7778 30.2125 24.6338 31.2999C24.5265 32.1105 24.425 32.8763 24.6098 33.6182C25.8862 33.6624 26.1936 32.5492 26.4841 31.4969C26.5223 31.3588 26.5601 31.2217 26.5998 31.0884C27.0028 29.7392 27.0449 28.8384 27.1091 27.4638C27.1175 27.2841 27.1262 27.0964 27.1362 26.8984C27.2428 24.7617 27.2543 24.1401 27.4432 23.5782C27.6462 22.9745 28.0541 22.4397 29.0051 20.169C32.6448 11.4754 25.2578 11.6255 21.7738 13.7378C21.9294 14.7015 22.1035 14.7116 22.2463 14.7199C22.3717 14.7272 22.4728 14.7331 22.516 15.3826C21.1191 16.137 19.7392 15.1351 18.3576 14.1318C17.3717 13.4159 16.3849 12.6994 15.3904 12.6201C14.0426 12.5123 12.4756 13.0856 11.6854 14.0494C10.7836 15.1498 11.1509 17.1544 11.5143 18.4453C11.8796 19.7477 12.3679 20.9655 12.9832 22.0524C14.2734 24.3328 14.3142 26.2718 14.3518 28.062C14.3863 29.7001 14.4181 31.2137 15.402 32.7506C15.7442 33.2854 16.3307 34.053 16.8171 33.5644C17.1308 33.1602 17.0323 32.2767 16.9155 31.2279ZM11.5311 22.008C10.8724 20.8062 10.1533 19.4942 9.77422 16.4811C9.23394 12.1795 14.4022 10.0095 17.8496 12.1122C18.0753 12.2496 18.2471 12.3805 18.3983 12.4958C18.8886 12.8694 19.1631 13.0785 20.3606 12.8124C20.8197 12.7103 21.3834 12.5034 22.0153 12.2716C24.0143 11.538 26.6953 10.5541 28.9013 11.8448C32.7102 14.0706 31.2566 18.3972 29.6742 21.9004C29.1043 23.1618 28.806 23.7839 28.6421 24.4396C28.4593 25.171 28.4438 25.9442 28.4052 27.693C28.361 29.686 27.5862 34.5378 25.3885 35.1688C24.2003 35.5093 23.585 34.9533 23.2851 33.9453C23.005 33.0039 23.1499 32.1368 23.2947 31.2703C23.4818 30.1499 23.6689 29.0305 22.9371 27.7526C21.8142 25.7923 19.0263 26.2963 18.3495 27.9161C17.9069 28.9756 18.0846 30.1905 18.2558 31.3613C18.4238 32.5099 18.5856 33.6161 18.1495 34.4916C17.2189 36.3577 13.137 35.3573 12.9486 27.4736C12.8769 24.4635 12.2389 23.2994 11.5311 22.008Z" fill="black"/>
</svg>
