<svg width="36" height="41" viewBox="0 0 36 41" fill="none" xmlns="http://www.w3.org/2000/svg">
<path fill-rule="evenodd" clip-rule="evenodd" d="M12.7672 12.967C8.3609 12.4054 4.93289 11.9685 4.93289 17.3212C4.93289 17.4835 4.96052 17.6373 4.98694 17.7844C5.04582 18.1123 5.09872 18.4068 4.82674 18.6877C4.30418 19.2202 4.03117 18.5535 3.7116 17.7731C3.49529 17.2449 3.25765 16.6646 2.90685 16.3688C0.961773 16.7577 1.27486 21.1199 3.00042 23.6962L4.82854 23.6728C5.29664 25.0926 5.38578 26.5163 5.47186 27.8911C5.62832 30.39 5.77468 32.7278 8.16808 34.5883C10.7105 36.5651 14.4873 39.0856 17.9007 39.0856C21.4975 39.0856 28.0831 34.8421 29.2562 32.6457C29.8375 31.5582 30.0164 29.4008 30.1759 27.4765V27.4765C30.2554 26.5177 30.3301 25.6168 30.4474 24.9349C30.6995 23.4655 31.07 23.554 31.5592 23.6708C31.9847 23.7724 32.4999 23.8954 33.105 23.0337C33.7725 22.0831 34.6182 17.9207 33.1338 16.3976C31.9093 16.443 31.8607 17.008 31.8046 17.6608C31.7717 18.044 31.7361 18.4574 31.4586 18.8137C30.431 19.0237 30.3348 18.1953 30.2322 17.311L30.2322 17.3109C30.2169 17.1795 30.2015 17.0468 30.1829 16.9161C29.904 14.9502 28.7092 11.5871 27.1618 10.4151C26.2894 9.7548 25.9989 10.0093 25.2907 10.6299C24.8596 11.0076 24.2737 11.521 23.3076 12.0462C19.9337 13.8804 16.0748 13.3886 12.7672 12.967ZM2.27708 11.5727C2.64415 12.1722 3.57799 13.4991 4.04942 13.8861C4.40703 13.6946 4.62613 13.4213 4.86198 13.1272C5.11149 12.8161 5.37974 12.4816 5.85055 12.1956C6.54329 11.7743 7.53653 11.4701 8.60173 11.4287C10.2968 11.3641 11.961 11.5771 13.5955 11.7864C17.107 12.236 20.4811 12.668 23.7287 10.2909C24.1426 9.98736 24.4219 9.71977 24.6958 9.45738L24.6958 9.45737C25.0101 9.15632 25.3172 8.86211 25.8123 8.52833C27.3741 8.76597 28.4933 9.73816 29.2058 10.759C29.6215 11.3549 29.8626 11.832 30.1757 12.5629C30.2544 12.7466 30.3192 12.9239 30.3805 13.0918L30.3806 13.0919C30.5772 13.6302 30.7385 14.0718 31.2103 14.3146C32.1028 13.3695 33.4217 10.6707 32.8549 8.49232C32.639 7.66597 31.7519 6.58576 31.0843 6.30311C29.916 5.80681 29.2541 6.1837 28.6124 6.54911C28.4091 6.66487 28.2078 6.77948 27.9931 6.86481C26.8405 7.32265 26.8854 6.58998 26.9337 5.80043C26.9561 5.43502 26.9792 5.05742 26.8847 4.78002C25.8141 1.64382 11.4591 -0.723632 4.76735 3.78983C1.65991 5.88363 0.153875 8.10525 2.27708 11.5727ZM2.08967 15.0612L2.08968 15.0612C2.27869 14.9817 2.46572 14.903 2.63875 14.7863C2.5816 14.4062 2.24022 13.8769 1.82092 13.2267C0.365439 10.9699 -2.02893 7.25734 3.26671 3.27673C8.41279 -0.594007 18.4135 -0.811849 24.2649 1.45478C27.2138 2.59577 27.7021 3.62118 28.0095 4.26652C28.221 4.71072 28.3468 4.97485 29.1303 4.97265C29.421 4.972 29.6759 4.96302 29.9053 4.95493C30.9425 4.91837 31.4608 4.90011 32.4302 5.7522C35.3638 8.3314 34.137 11.2135 33.3041 13.1701C32.983 13.9245 32.7204 14.5413 32.7775 14.9502C32.9255 14.9978 33.0807 15.0299 33.238 15.0623C34.1019 15.2405 35.0272 15.4314 35.149 18.3024C35.367 23.4604 33.8333 24.27 32.6922 24.8724C32.147 25.1602 31.6914 25.4007 31.5594 26.0457C31.4105 26.7716 31.3541 27.5638 31.2971 28.3653C31.2335 29.2593 31.1691 30.1647 30.9746 31.002C30.4942 33.067 30.3448 33.5747 29.0511 34.8151C26.5374 37.224 21.5137 40.3674 17.6991 40.3566C15.0865 40.3476 11.2827 38.2844 9.53199 37.1772C7.00753 35.5821 5.10563 34.1652 4.57483 30.8652C4.48935 30.3351 4.42894 29.6458 4.36612 28.9289C4.2623 27.7444 4.15189 26.4846 3.91089 25.7432C3.77496 25.326 3.41134 25.1462 2.96902 24.9275C1.85382 24.376 0.238314 23.5772 0.510152 18.1026C0.631121 15.6747 1.37457 15.362 2.08967 15.0612ZM17.5029 32.7772C18.9621 32.7772 21.42 31.7384 21.429 30.5754L21.4292 30.5599C21.4311 30.3363 21.4315 30.288 21.4119 30.2502C21.4064 30.2398 21.3995 30.2301 21.3907 30.2179C21.374 30.1946 21.3505 30.1619 21.3175 30.0965L15.52 29.9777C15.4039 29.976 15.2779 29.9705 15.148 29.9648C14.3116 29.9282 13.3094 29.8844 13.6847 30.8022C14.1112 31.8446 16.0274 32.7772 17.5029 32.7772ZM14.6894 28.7985C17.1385 28.7562 22.2383 28.6681 22.8433 29.0145C23.5558 30.669 22.075 32.2155 21.2977 32.797C18.0805 35.2167 12.5116 33.7998 12.0527 29.902C11.922 28.7966 12.3954 28.8022 13.2681 28.8125C13.3562 28.8135 13.4484 28.8146 13.5444 28.8146C13.7537 28.8146 14.1593 28.8076 14.6891 28.7985L14.6894 28.7985ZM11.1983 21.8581C12.9256 22.2235 12.3175 20.1459 12.0835 19.5806C11.0543 19.4798 10.806 19.6977 11.1983 21.8581ZM22.0591 20.7542C22.0607 20.6673 22.0623 20.5783 22.0623 20.4881C22.0623 19.0712 23.2751 19.1288 23.2751 20.6861C23.2751 21.5773 23.2265 22.0616 22.4204 21.9464C22.0411 21.7481 22.0494 21.2899 22.0591 20.7542Z" fill="black"/>
</svg>
