<svg width="67" height="66" viewBox="0 0 67 66" fill="none" xmlns="http://www.w3.org/2000/svg">
<circle cx="33.5" cy="33" r="32" fill="#20E4FF"/>
<path d="M29.6374 39C29.6374 39 29.5014 38.9139 29.2487 38.7438C28.998 38.5757 28.6305 38.3237 28.1696 37.9939C27.7108 37.6642 27.1585 37.2546 26.5361 36.7674C25.9159 36.2801 25.2255 35.7172 24.4948 35.0745C23.7641 34.4318 22.9931 33.7093 22.2178 32.9028C21.8312 32.4995 21.4425 32.0731 21.0601 31.6237C20.6778 31.1742 20.3018 30.7016 19.9407 30.1997C19.5796 29.6998 19.2334 29.1705 18.9169 28.6118C18.6004 28.0531 18.3115 27.4629 18.0757 26.837C17.8421 26.2112 17.6573 25.5496 17.5659 24.8607C17.4746 24.1717 17.4725 23.4513 17.5957 22.7414C17.6573 22.3865 17.7444 22.0357 17.8654 21.6934C17.9844 21.351 18.1309 21.0213 18.303 20.7041C18.6428 20.0698 19.0762 19.4964 19.5541 18.9882C19.6136 18.923 19.6731 18.8621 19.7389 18.8033L19.7878 18.7592L19.8409 18.713L19.9322 18.6374C19.9959 18.5849 20.0745 18.5219 20.1404 18.4715C20.2083 18.419 20.2784 18.3665 20.3507 18.316C20.6332 18.1123 20.9306 17.9233 21.2386 17.7574C21.8567 17.4234 22.53 17.1861 23.2119 17.0769C23.8937 16.9655 24.5713 16.9823 25.2022 17.0811C25.833 17.1798 26.4193 17.3562 26.9652 17.562C27.509 17.7679 28.0145 18.0052 28.4904 18.2488C28.9662 18.4925 29.4122 18.7424 29.8349 18.986C30.2576 19.2297 30.657 19.4691 31.0372 19.696C31.4174 19.9228 31.7764 20.137 32.1141 20.3366C32.7917 20.7356 33.3886 21.0696 33.8899 21.33C34.3912 21.5905 34.7927 21.7774 35.0709 21.9013C35.209 21.9622 35.3173 22.0084 35.3895 22.0399C35.4618 22.0693 35.5 22.0861 35.5 22.0861C35.5 22.0861 35.4618 22.0735 35.3853 22.0525C35.3109 22.0294 35.1984 21.9958 35.0539 21.9496C34.765 21.8572 34.3423 21.7123 33.8113 21.5064C33.2803 21.3006 32.6451 21.0297 31.9229 20.702C31.2007 20.3765 30.3978 19.99 29.5163 19.5951C29.0766 19.3977 28.6157 19.2003 28.1377 19.0155C27.6598 18.8306 27.1606 18.6584 26.6466 18.5219C26.1326 18.3875 25.6036 18.2866 25.0705 18.2614C24.5394 18.2341 24.0084 18.2803 23.4986 18.419C22.991 18.5576 22.5067 18.7886 22.0542 19.0953C21.8291 19.2486 21.6103 19.4229 21.4021 19.6099C21.349 19.6582 21.298 19.7044 21.247 19.7548L21.2088 19.7905L21.1727 19.8262L21.0984 19.8997L21.0155 19.9837C21.0113 19.9879 21.0198 19.9816 21.0113 19.9879L21.0028 19.9984L20.9836 20.0173L20.9454 20.0551C20.8944 20.1055 20.8392 20.1517 20.7882 20.2C20.3677 20.5865 19.9938 21.0171 19.6922 21.4917C19.3905 21.9664 19.1654 22.4831 19.0316 23.0292C18.8956 23.5753 18.8531 24.1507 18.8871 24.7304C18.9232 25.3101 19.0379 25.894 19.2079 26.4653C19.3778 27.0366 19.6008 27.5953 19.8579 28.1329C20.1149 28.6727 20.4059 29.1936 20.716 29.6935C21.0261 30.1955 21.3554 30.6743 21.6931 31.1364C22.0309 31.5964 22.3792 32.0374 22.7297 32.4596C23.4306 33.3018 24.138 34.0642 24.8135 34.749C25.4889 35.4337 26.1325 36.0407 26.7146 36.5657C27.2966 37.0908 27.817 37.5361 28.2503 37.8973C28.6837 38.2586 29.032 38.5337 29.2699 38.7186C29.5057 38.9034 29.6374 39 29.6374 39Z" fill="#545996"/>
<path d="M33.1803 19.2075C33.3525 18.9657 33.5438 18.745 33.7458 18.5287C33.9478 18.3144 34.1625 18.1108 34.3857 17.9177C34.6089 17.7247 34.8428 17.5422 35.0873 17.3725C35.3318 17.2028 35.5847 17.0437 35.8484 16.9016C36.3735 16.6152 36.9368 16.3861 37.5257 16.2334C38.1146 16.0785 38.7248 15.9979 39.3392 16C39.9536 16.0022 40.568 16.0785 41.1653 16.2207C41.463 16.2928 41.7585 16.3776 42.0497 16.4795C42.122 16.5028 42.1943 16.5325 42.2666 16.558L42.375 16.5983C42.4111 16.611 42.4452 16.6258 42.4813 16.6407L42.6939 16.7277L42.9044 16.821C42.9745 16.8507 43.0447 16.8846 43.1127 16.9165C43.1807 16.9504 43.2509 16.9822 43.3189 17.0162L43.523 17.1201L43.625 17.1731L43.725 17.2283L43.9248 17.3386L44.0226 17.3938C44.0524 17.4107 44.0885 17.4319 44.1225 17.451C44.2565 17.5316 44.3862 17.6101 44.5158 17.695C44.7731 17.8668 45.0218 18.0556 45.2535 18.2677C45.4874 18.4778 45.7042 18.7069 45.9104 18.9487C46.1145 19.1905 46.3037 19.4472 46.4759 19.7145C46.646 19.9818 46.797 20.2639 46.9266 20.5545C47.0563 20.8452 47.1648 21.1443 47.2498 21.4476C47.3348 21.7531 47.3965 22.0607 47.4369 22.3725C47.5198 22.9941 47.5155 23.6156 47.456 24.2223C47.3944 24.8311 47.271 25.4251 47.1095 26.0021C46.9458 26.5791 46.7481 27.1434 46.5142 27.6886C46.2825 28.2359 46.0274 28.7683 45.7489 29.2859C45.4704 29.8056 45.1728 30.3105 44.8624 30.8069L44.7454 30.9936L44.6264 31.1781C44.5456 31.3012 44.4669 31.4242 44.384 31.5451C44.3011 31.666 44.2203 31.7869 44.1374 31.9079L43.8866 32.2664L43.9142 32.1964L43.7271 33.4373L43.5315 34.6783L43.3317 35.9172C43.2636 36.3308 43.1956 36.7445 43.1233 37.156C42.8385 38.8064 42.5366 40.4568 42.2028 42.1008C42.0349 42.9239 41.8563 43.7449 41.6649 44.5658C41.4715 45.3868 41.2674 46.2056 41.0314 47.0244C40.9124 47.4339 40.789 47.8433 40.6487 48.2506C40.5084 48.66 40.3575 49.0694 40.1683 49.4831C40.0726 49.6909 39.9684 49.8988 39.8366 50.1152C39.7686 50.2234 39.6963 50.3337 39.6028 50.4483C39.556 50.5055 39.5029 50.5649 39.4412 50.6243C39.3796 50.6837 39.3073 50.7474 39.2137 50.8068C39.1202 50.8662 39.0054 50.9298 38.8502 50.968C38.7758 50.9871 38.6865 50.9998 38.5972 50.9998C38.5079 51.0019 38.4144 50.9871 38.3272 50.9637C38.1508 50.9171 38.0104 50.828 37.9105 50.7431C37.8085 50.6562 37.7383 50.5713 37.683 50.4886C37.5746 50.3273 37.513 50.1852 37.4641 50.0473C37.4386 49.9794 37.4194 49.9116 37.4003 49.8458C37.3918 49.8119 37.3833 49.78 37.3748 49.744L37.362 49.6909L37.3493 49.6273L37.345 49.604C37.3365 49.5616 37.3344 49.5191 37.3344 49.4788C37.3386 49.3876 37.3429 49.2879 37.345 49.1903L37.3535 48.8954C37.3578 48.6982 37.362 48.503 37.3642 48.3057C37.3684 47.9112 37.3705 47.5166 37.3663 47.122C37.3599 46.3329 37.3386 45.5416 37.3025 44.7525C37.2281 43.1742 37.092 41.596 36.8518 40.0368C36.7306 39.2561 36.5839 38.4819 36.3947 37.7161C36.299 37.3342 36.1949 36.9545 36.0758 36.579C35.9568 36.2036 35.825 35.8344 35.6762 35.4696C35.5252 35.1068 35.3573 34.7526 35.1638 34.411C34.9704 34.0716 34.7492 33.7449 34.4941 33.4479C34.239 33.151 33.9435 32.8858 33.6097 32.6779C33.276 32.47 32.8976 32.3279 32.5043 32.2664C32.5021 32.2664 32.5 32.2643 32.5 32.26C32.5 32.2579 32.5021 32.2558 32.5043 32.2558C32.9039 32.2876 33.2972 32.4043 33.6565 32.5931C34.0158 32.7819 34.3411 33.0343 34.6302 33.3207C34.9193 33.6071 35.1723 33.9295 35.3977 34.2668C35.6251 34.6041 35.825 34.9583 36.0078 35.319C36.3713 36.0445 36.6626 36.8018 36.9113 37.5697C37.1601 38.3376 37.3684 39.1182 37.5491 39.9031C37.7298 40.688 37.8829 41.4793 38.0147 42.2748C38.1465 43.0682 38.2592 43.8658 38.3549 44.6655C38.4505 45.4653 38.5292 46.265 38.5951 47.069C38.627 47.4699 38.6546 47.873 38.6801 48.276C38.6929 48.4776 38.7035 48.6791 38.712 48.8806L38.7248 49.1839C38.729 49.2858 38.7333 49.3855 38.7354 49.4937L38.7205 49.3452C38.7205 49.3452 38.7205 49.3452 38.7226 49.3473L38.7269 49.3579L38.7354 49.3812C38.7418 49.3982 38.746 49.4152 38.7524 49.43C38.7652 49.464 38.7779 49.4958 38.7928 49.5234C38.8204 49.5806 38.8523 49.6273 38.8651 49.6358C38.8715 49.64 38.8693 49.6337 38.8481 49.6125C38.8289 49.5934 38.78 49.5594 38.7056 49.5382C38.6695 49.5276 38.6291 49.5234 38.5908 49.5234C38.5547 49.5234 38.5186 49.5297 38.493 49.534C38.4399 49.5488 38.4186 49.5637 38.4144 49.5658C38.4101 49.57 38.4186 49.5658 38.4335 49.5552C38.4484 49.5424 38.4675 49.5255 38.4888 49.5021C38.5313 49.4576 38.5781 49.3961 38.6249 49.3282C38.7184 49.1924 38.8119 49.0312 38.9012 48.8636C39.0777 48.5263 39.2371 48.1572 39.3881 47.7817C39.539 47.4063 39.6772 47.0223 39.8132 46.6341C40.0811 45.8577 40.3277 45.0665 40.5595 44.271C40.7933 43.4755 41.0123 42.6715 41.227 41.8675C41.6543 40.2574 42.0519 38.6367 42.4303 37.0097C42.6216 36.1972 42.8087 35.3826 42.9937 34.568L43.5379 32.12C43.54 32.0988 43.5485 32.0818 43.557 32.0649L43.5655 32.05L43.7866 31.6766C43.861 31.5536 43.9312 31.4263 44.0035 31.3012C44.0758 31.176 44.1459 31.0509 44.2161 30.9236L44.3202 30.7348L44.4223 30.5439C44.6944 30.0369 44.9517 29.5235 45.1855 29.0017C45.4215 28.4798 45.6383 27.9516 45.8254 27.4149C46.0146 26.8803 46.1698 26.3351 46.291 25.79C46.41 25.2427 46.4887 24.6911 46.5164 24.1417C46.5419 23.5944 46.5121 23.0492 46.4143 22.5231C46.3165 21.997 46.1464 21.4922 45.9104 21.0233C45.7914 20.79 45.6575 20.563 45.5044 20.3509C45.3513 20.1366 45.1855 19.933 45.0048 19.7399C44.8241 19.5469 44.6306 19.3666 44.4265 19.1948C44.2224 19.0208 44.0141 18.8532 43.7994 18.6878C43.6931 18.605 43.5825 18.5223 43.472 18.4417C43.4444 18.4226 43.4188 18.4035 43.3891 18.3823L43.3019 18.3208L43.1297 18.2041L43.0425 18.1468L42.9554 18.0917L42.7811 17.9814C42.7215 17.9453 42.662 17.9114 42.6025 17.8753C42.543 17.8392 42.4834 17.8053 42.4239 17.7713L42.2432 17.6716L42.0604 17.5783C42.0306 17.5635 41.9987 17.5465 41.969 17.5316L41.8754 17.4871C41.8138 17.4574 41.7521 17.4277 41.6883 17.4001C41.4375 17.2877 41.1802 17.1901 40.9209 17.101C40.4 16.9292 39.86 16.8125 39.3137 16.7637C38.7673 16.7171 38.2103 16.7361 37.6618 16.8274C37.1133 16.9165 36.5733 17.0798 36.0546 17.3025C35.5358 17.5253 35.0384 17.8074 34.5728 18.1383C34.3389 18.3038 34.1136 18.4799 33.8967 18.6687C33.682 18.8575 33.4716 19.0569 33.2824 19.2711L33.2802 19.2732C33.259 19.2987 33.2186 19.3008 33.1952 19.2796C33.1654 19.2669 33.1612 19.2329 33.1803 19.2075Z" fill="#545996"/>
<path d="M25.5 37.2105C25.5637 37.3852 25.6228 37.562 25.6842 37.7388L25.8617 38.267L26.0368 38.7952L26.2097 39.3235L26.5487 40.382L26.7147 40.9103C26.7716 41.0871 26.8262 41.2617 26.8808 41.4385L27.545 43.5515C27.6542 43.9029 27.7657 44.2544 27.8771 44.6058C27.9863 44.9573 28.1023 45.3066 28.2161 45.6581L28.389 46.1821L28.5641 46.7061C28.6801 47.0555 28.803 47.4027 28.9235 47.75C28.9849 47.9226 29.0464 48.0972 29.1124 48.2677C29.176 48.4403 29.2397 48.6128 29.3034 48.7854C29.4354 49.1284 29.5673 49.4715 29.7106 49.8082C29.7811 49.9766 29.8539 50.147 29.929 50.3133C30.0041 50.4796 30.0814 50.6479 30.161 50.8121C30.3225 51.1404 30.4931 51.4666 30.6888 51.7738C30.7866 51.9296 30.8912 52.079 31.005 52.2221C31.1187 52.3652 31.2415 52.4999 31.3803 52.6178C31.5191 52.7335 31.676 52.8345 31.8557 52.8871C31.9444 52.9124 32.04 52.9271 32.1355 52.9229C32.2311 52.9187 32.3289 52.8998 32.4221 52.8661C32.3016 52.5588 32.1833 52.2495 32.0809 51.9338C32.0263 51.778 31.9831 51.6181 31.9331 51.4603C31.9103 51.3803 31.8899 51.3003 31.8671 51.2203C31.8444 51.1404 31.8216 51.0604 31.8034 50.9804L31.7443 50.7405C31.7238 50.6605 31.7079 50.5785 31.6897 50.4985C31.6533 50.3364 31.6237 50.1744 31.5918 50.0123C31.535 49.6861 31.4827 49.3599 31.4463 49.0295C31.2916 47.7121 31.3098 46.3757 31.4713 45.0499C31.5122 44.7195 31.56 44.387 31.6191 44.0586C31.6783 43.7282 31.7442 43.3999 31.8193 43.0737C31.9695 42.4192 32.1514 41.771 32.363 41.1291C32.5745 40.4873 32.818 39.8538 33.0932 39.2309C33.2297 38.9194 33.3753 38.6079 33.53 38.3007C33.6073 38.147 33.6869 37.9934 33.7688 37.8398C33.8098 37.764 33.853 37.6861 33.8962 37.6104L33.9622 37.4946L33.9963 37.4357L34.0372 37.3705L34.0395 37.3662C34.2533 37.019 34.7288 36.8969 35.1041 37.0948C35.4795 37.2926 35.6114 37.7324 35.3976 38.0797C35.3839 38.1007 35.368 38.1239 35.3543 38.1428L35.3407 38.1597L35.3248 38.1807L35.2906 38.227L35.2224 38.3217C35.1769 38.387 35.1314 38.4522 35.0882 38.5174C34.9995 38.65 34.913 38.7847 34.8266 38.9215C34.656 39.1951 34.4899 39.4729 34.333 39.7549C34.0168 40.3189 33.7279 40.8998 33.4663 41.4911C33.2047 42.0825 32.9681 42.6844 32.7634 43.2968C32.661 43.6041 32.5655 43.9113 32.479 44.2228C32.3903 44.5343 32.313 44.8457 32.2425 45.1614C31.9604 46.4199 31.8148 47.71 31.8353 49.0064C31.8375 49.3305 31.858 49.6546 31.883 49.9787C31.8989 50.1407 31.9103 50.3028 31.9331 50.4627C31.9422 50.5427 31.9513 50.6248 31.9626 50.7047L31.9968 50.9468C32.0081 51.0267 32.0218 51.1088 32.0354 51.1888C32.0491 51.2687 32.0627 51.3508 32.0786 51.4308C32.1105 51.5907 32.1401 51.7528 32.1788 51.9106C32.247 52.2305 32.3334 52.5483 32.4244 52.864C32.2584 52.9671 32.0445 53.0176 31.833 52.9945C31.6214 52.9713 31.4213 52.8871 31.2461 52.7798C31.0687 52.6746 30.9117 52.5441 30.7661 52.4094C30.6205 52.2726 30.4886 52.1274 30.3635 51.978C30.1133 51.677 29.8926 51.3592 29.6901 51.0351C29.4854 50.711 29.3034 50.3764 29.126 50.0418C28.9531 49.7051 28.787 49.3642 28.6346 49.0211C28.5573 48.8485 28.4822 48.6781 28.4071 48.5055C28.3344 48.3329 28.2638 48.1583 28.1933 47.9857C28.0523 47.6384 27.9226 47.287 27.793 46.9376L27.6974 46.6746L27.6064 46.4094L27.4267 45.8791C27.3084 45.5255 27.1993 45.1698 27.0901 44.8142C26.9809 44.4585 26.8808 44.1007 26.7807 43.743C26.6852 43.3852 26.5873 43.0253 26.4986 42.6654L26.3667 42.1246C26.3235 41.9436 26.2825 41.7626 26.2416 41.5837C26.2006 41.4027 26.1597 41.2217 26.1233 41.0408C26.0846 40.8598 26.0459 40.6788 26.0095 40.4978L25.9026 39.9527L25.8048 39.4055L25.7138 38.8584C25.6865 38.6753 25.6569 38.4922 25.6319 38.3091C25.5796 37.9471 25.5341 37.5788 25.5 37.2105Z" fill="#545996"/>
</svg>
