<svg width="73" height="73" viewBox="0 0 73 73" fill="none" xmlns="http://www.w3.org/2000/svg">
<circle cx="36.5" cy="36.5" r="36.5" fill="#20E4FF"/>
<path d="M51.5629 19.2916C50.3193 16.8324 48.1581 15.7501 46.0606 15.1952C44.1571 14.6912 42.2523 15.1841 40.5652 16.433C39.4104 17.2895 38.1225 17.7233 36.8332 17.737C36.7223 17.7357 36.2773 17.7357 36.1664 17.737C34.8771 17.7219 33.5892 17.2881 32.4344 16.433C30.7487 15.1841 28.8425 14.6912 26.9391 15.1952C24.8416 15.7501 22.6803 16.8324 21.4368 19.2916C19.2478 23.6222 19.6942 30.0292 21.8693 34.189C22.3268 35.0647 22.385 36.2021 22.3309 37.2679C22.2519 38.8073 22.2297 40.2518 22.2769 41.7912C22.3337 43.6928 22.4696 45.5958 22.7524 47.4629C23.2376 50.6644 24.1914 53.8686 26.0504 56.0937C26.5135 56.6486 27.025 57.132 27.5685 57.5368C29.092 58.67 30.7708 57.6111 31.4709 55.5843C31.9146 54.3009 31.9894 52.8565 32.0837 51.4492C32.2916 48.3456 33.1012 45.4484 35.7297 45.0794C35.8767 45.0587 36.0222 45.0505 36.1678 45.0546C36.2787 45.0519 36.3896 45.0629 36.5019 45.0739C36.6128 45.0629 36.7251 45.0519 36.836 45.0546C36.9816 45.0505 37.1285 45.0587 37.2741 45.0794C39.9025 45.4498 40.7135 48.3469 40.9201 51.4492C41.0144 52.8565 41.0892 54.3009 41.5328 55.5843C42.2329 57.6111 43.9104 58.67 45.4353 57.5368C45.9788 57.132 46.4889 56.6486 46.9533 56.0937C48.8124 53.8686 49.7676 50.6657 50.2514 47.4629C50.5342 45.5958 50.6701 43.6928 50.7269 41.7912C50.774 40.2504 50.7519 38.806 50.6728 37.2679C50.6188 36.2035 50.677 35.0647 51.1345 34.189C53.3055 30.0292 53.7519 23.6222 51.5629 19.2916Z" fill="white"/>
</svg>
