<svg width="44" height="43" viewBox="0 0 44 43" fill="none" xmlns="http://www.w3.org/2000/svg">
<path d="M43.5 0H0.5V43H43.5V0Z" fill="#20E4FF"/>
<path d="M32.2125 16.2595C31.9438 15.3188 31.2719 14.647 30.3313 14.3782C28.7188 13.9751 21.8656 13.9751 21.8656 13.9751C21.8656 13.9751 15.1469 13.9751 13.4 14.3782C12.4594 14.647 11.7875 15.3188 11.5187 16.2595C11.25 18.0063 11.25 21.5001 11.25 21.5001C11.25 21.5001 11.25 24.9938 11.6531 26.7407C11.9219 27.6813 12.5937 28.3532 13.5344 28.622C15.1469 29.0251 22 29.0251 22 29.0251C22 29.0251 28.7187 29.0251 30.4656 28.622C31.4062 28.3532 32.0781 27.6813 32.3469 26.7407C32.75 24.9938 32.75 21.5001 32.75 21.5001C32.75 21.5001 32.75 18.0063 32.2125 16.2595ZM19.85 24.7251V18.2751L25.4938 21.5001L19.85 24.7251Z" fill="white"/>
</svg>
