<svg width="44" height="43" viewBox="0 0 44 43" fill="none" xmlns="http://www.w3.org/2000/svg">
<path d="M43.5 0H0.5V43H43.5V0Z" fill="#20E4FF"/>
<path d="M22 12.3623C24.9563 12.3623 25.3594 12.3623 26.5688 12.3623C27.6438 12.3623 28.1813 12.6311 28.5844 12.7654C29.1219 13.0342 29.525 13.1686 29.9282 13.5717C30.3313 13.9748 30.6 14.3779 30.7344 14.9154C30.8688 15.3186 31.0032 15.8561 31.1375 16.9311C31.1375 18.1404 31.1375 18.4092 31.1375 21.4998C31.1375 24.5904 31.1375 24.8592 31.1375 26.0686C31.1375 27.1436 30.8688 27.6811 30.7344 28.0842C30.4657 28.6217 30.3313 29.0248 29.9282 29.4279C29.525 29.8311 29.1219 30.0998 28.5844 30.2342C28.1813 30.3686 27.6438 30.5029 26.5688 30.6373C25.3594 30.6373 25.0907 30.6373 22 30.6373C18.9094 30.6373 18.6407 30.6373 17.4313 30.6373C16.3563 30.6373 15.8188 30.3686 15.4157 30.2342C14.8782 29.9654 14.475 29.8311 14.0719 29.4279C13.6688 29.0248 13.4 28.6217 13.2657 28.0842C13.1313 27.6811 12.9969 27.1436 12.8625 26.0686C12.8625 24.8592 12.8625 24.5904 12.8625 21.4998C12.8625 18.4092 12.8625 18.1404 12.8625 16.9311C12.8625 15.8561 13.1313 15.3186 13.2657 14.9154C13.5344 14.3779 13.6688 13.9748 14.0719 13.5717C14.475 13.1686 14.8782 12.8998 15.4157 12.7654C15.8188 12.6311 16.3563 12.4967 17.4313 12.3623C18.6407 12.3623 19.0438 12.3623 22 12.3623ZM22 10.3467C18.9094 10.3467 18.6407 10.3467 17.4313 10.3467C16.2219 10.3467 15.4157 10.6154 14.7438 10.8842C14.0719 11.1529 13.4 11.5561 12.7282 12.2279C12.0563 12.8998 11.7875 13.4373 11.3844 14.2436C11.1157 14.9154 10.9813 15.7217 10.8469 16.9311C10.8469 18.1404 10.8469 18.5436 10.8469 21.4998C10.8469 24.5904 10.8469 24.8592 10.8469 26.0686C10.8469 27.2779 11.1157 28.0842 11.3844 28.7561C11.6532 29.4279 12.0563 30.0998 12.7282 30.7717C13.4 31.4436 13.9375 31.7123 14.7438 32.1154C15.4157 32.3842 16.2219 32.5186 17.4313 32.6529C18.6407 32.6529 19.0438 32.6529 22 32.6529C24.9563 32.6529 25.3594 32.6529 26.5688 32.6529C27.7782 32.6529 28.5844 32.3842 29.2563 32.1154C29.9282 31.8467 30.6 31.4436 31.2719 30.7717C31.9438 30.0998 32.2125 29.5623 32.6157 28.7561C32.8844 28.0842 33.0188 27.2779 33.1532 26.0686C33.1532 24.8592 33.1532 24.4561 33.1532 21.4998C33.1532 18.5436 33.1532 18.1404 33.1532 16.9311C33.1532 15.7217 32.8844 14.9154 32.6157 14.2436C32.3469 13.5717 31.9438 12.8998 31.2719 12.2279C30.6 11.5561 30.0625 11.2873 29.2563 10.8842C28.5844 10.6154 27.7782 10.4811 26.5688 10.3467C25.3594 10.3467 25.0907 10.3467 22 10.3467Z" fill="white"/>
<path d="M22 15.7217C18.775 15.7217 16.2219 18.2748 16.2219 21.4998C16.2219 24.7248 18.775 27.2779 22 27.2779C25.225 27.2779 27.7782 24.7248 27.7782 21.4998C27.7782 18.2748 25.225 15.7217 22 15.7217ZM22 25.2623C19.9844 25.2623 18.2375 23.6498 18.2375 21.4998C18.2375 19.4842 19.85 17.7373 22 17.7373C24.0157 17.7373 25.7625 19.3498 25.7625 21.4998C25.7625 23.5154 24.0157 25.2623 22 25.2623Z" fill="white"/>
<path d="M27.9125 16.9311C28.6547 16.9311 29.2563 16.3294 29.2563 15.5873C29.2563 14.8452 28.6547 14.2436 27.9125 14.2436C27.1704 14.2436 26.5688 14.8452 26.5688 15.5873C26.5688 16.3294 27.1704 16.9311 27.9125 16.9311Z" fill="white"/>
</svg>
