<svg width="44" height="43" viewBox="0 0 44 43" fill="none" xmlns="http://www.w3.org/2000/svg">
<path d="M43.5 0H0.5V43H43.5V0Z" fill="#20E4FF"/>
<path d="M11.3843 21.108C17.1556 18.5935 21.0041 16.9358 22.9297 16.1349C28.4276 13.8481 29.5701 13.4509 30.3147 13.4376C30.4784 13.4349 30.8446 13.4755 31.0818 13.6679C31.2821 13.8305 31.3372 14.05 31.3636 14.2041C31.39 14.3582 31.4228 14.7092 31.3967 14.9834C31.0988 18.1139 29.8096 25.7106 29.1537 29.2168C28.8762 30.7004 28.3298 31.1978 27.8008 31.2465C26.6511 31.3523 25.7781 30.4867 24.6646 29.7568C22.9221 28.6146 21.9378 27.9036 20.2464 26.789C18.2918 25.5009 19.5589 24.793 20.6729 23.636C20.9644 23.3332 26.0299 18.7258 26.1279 18.3078C26.1402 18.2555 26.1516 18.0607 26.0358 17.9578C25.92 17.8549 25.7492 17.8901 25.6259 17.9181C25.4511 17.9577 22.6676 19.7976 17.2752 23.4375C16.4851 23.9801 15.7695 24.2444 15.1283 24.2306C14.4214 24.2153 13.0617 23.8309 12.0508 23.5023C10.811 23.0993 9.82565 22.8862 9.91146 22.2018C9.95615 21.8453 10.4471 21.4807 11.3843 21.108Z" fill="white"/>
</svg>
