<svg width="44" height="43" viewBox="0 0 44 43" fill="none" xmlns="http://www.w3.org/2000/svg">
<path d="M43.5 0H0.5V43H43.5V0Z" fill="#20E4FF"/>
<path fill-rule="evenodd" clip-rule="evenodd" d="M29.525 13.8406C27.5094 11.825 24.8219 10.75 22 10.75C16.0875 10.75 11.25 15.5875 11.25 21.5C11.25 23.3813 11.7875 25.2625 12.7281 26.875L11.25 32.25L16.8938 30.7719C18.5063 31.5781 20.2531 32.1156 22 32.1156C27.9125 32.1156 32.75 27.2781 32.75 21.3656C32.75 18.5437 31.5406 15.8563 29.525 13.8406ZM22 30.3687C20.3875 30.3687 18.775 29.9656 17.4313 29.1594L17.1625 29.025L13.8031 29.9656L14.7438 26.7406L14.475 26.3375C13.5344 24.8594 13.1312 23.2469 13.1312 21.6344C13.1312 16.7969 17.1625 12.7656 22 12.7656C24.4187 12.7656 26.5688 13.7062 28.3156 15.3187C30.0625 17.0656 30.8688 19.2156 30.8688 21.6344C30.8688 26.3375 26.9719 30.3687 22 30.3687ZM26.8375 23.65C26.5688 23.5156 25.225 22.8438 24.9563 22.8438C24.6875 22.7094 24.5531 22.7094 24.4187 22.9781C24.2844 23.2469 23.7469 23.7844 23.6125 24.0531C23.4781 24.1875 23.3437 24.1875 23.075 24.1875C22.8062 24.0531 22 23.7844 20.925 22.8438C20.1188 22.1719 19.5813 21.2313 19.4469 20.9625C19.3125 20.6938 19.4469 20.5594 19.5813 20.425C19.7156 20.2906 19.85 20.1562 19.9844 20.0219C20.1187 19.8875 20.1188 19.7531 20.2531 19.6188C20.3875 19.4844 20.2531 19.35 20.2531 19.2156C20.2531 19.0813 19.7156 17.7375 19.4469 17.2C19.3125 16.7969 19.0438 16.7969 18.9094 16.7969C18.775 16.7969 18.6406 16.7969 18.3719 16.7969C18.2375 16.7969 17.9687 16.7969 17.7 17.0656C17.4312 17.3344 16.7594 18.0062 16.7594 19.35C16.7594 20.6937 17.7 21.9031 17.8344 22.1719C17.9687 22.3062 19.7156 25.1281 22.4031 26.2031C24.6875 27.1437 25.0906 26.875 25.6281 26.875C26.1656 26.875 27.2406 26.2031 27.375 25.6656C27.6437 24.9938 27.6438 24.4563 27.5094 24.4563C27.375 23.7844 27.1063 23.7844 26.8375 23.65Z" fill="white"/>
</svg>
