<svg width="33" height="33" viewBox="0 0 33 33" fill="none" xmlns="http://www.w3.org/2000/svg">
<path d="M10.3661 30.9375C22.8195 30.9375 29.6319 20.6188 29.6319 11.6862C29.6319 11.3974 29.6319 11.1045 29.6196 10.8158C30.9459 9.85565 32.0906 8.66696 33 7.3054C31.7611 7.85166 30.4482 8.21168 29.1039 8.37378C30.5199 7.5274 31.5804 6.19571 32.0884 4.62621C30.758 5.41434 29.302 5.96761 27.7839 6.26178C26.7634 5.17489 25.4129 4.45486 23.9417 4.21321C22.4705 3.97157 20.9606 4.2218 19.646 4.92515C18.3314 5.62849 17.2854 6.7457 16.6701 8.10371C16.0547 9.46173 15.9043 10.9848 16.2422 12.4369C13.5501 12.3019 10.9164 11.6026 8.51203 10.3842C6.10762 9.16581 3.98616 7.45564 2.28525 5.36459C1.42176 6.85595 1.15825 8.62004 1.54821 10.2986C1.93817 11.9772 2.95238 13.4445 4.38487 14.4025C3.31143 14.366 2.26157 14.0777 1.32 13.561V13.6538C1.32185 15.2161 1.86307 16.7298 2.85218 17.9392C3.84128 19.1485 5.2176 19.9792 6.7485 20.2909C6.16742 20.451 5.56716 20.5308 4.96444 20.5281C4.53953 20.5294 4.11547 20.49 3.69806 20.4105C4.13075 21.7554 4.97325 22.9312 6.10757 23.7734C7.24189 24.6155 8.61121 25.0818 10.0238 25.1068C7.62415 26.9916 4.66002 28.0137 1.60875 28.0088C1.0711 28.011 0.533823 27.98 0 27.916C3.09687 29.8903 6.69343 30.9387 10.3661 30.9375Z" fill="#20E4FF"/>
</svg>
