<svg width="33" height="33" viewBox="0 0 33 33" fill="none" xmlns="http://www.w3.org/2000/svg">
<g clip-path="url(#clip0_210_599)">
<path d="M16.5 1C12.8859 0.997711 9.38472 2.25836 6.60169 4.56398C3.81865 6.8696 1.92876 10.0752 1.2588 13.6266C0.588836 17.178 1.18091 20.8519 2.93266 24.013C4.68441 27.1741 7.48569 29.6237 10.8522 30.9383C10.7165 29.7118 10.5925 27.8266 10.9045 26.4878C11.1873 25.2769 12.7218 18.7824 12.7218 18.7824C12.7218 18.7824 12.2588 17.8543 12.2588 16.4826C12.2588 14.3261 13.5085 12.718 15.0643 12.718C16.3857 12.718 17.025 13.71 17.025 14.9016C17.025 16.2307 16.1783 18.2186 15.7405 20.0611C15.3762 21.6034 16.5155 22.8628 18.0364 22.8628C20.7915 22.8628 22.9092 19.9565 22.9092 15.7638C22.9092 12.0534 20.2413 9.45913 16.4341 9.45913C12.0243 9.45913 9.43584 12.7664 9.43584 16.1842C9.43584 17.5172 9.94928 18.9451 10.5887 19.7221C10.6437 19.7806 10.6827 19.8525 10.7017 19.9306C10.7207 20.0087 10.7191 20.0904 10.6972 20.1677C10.579 20.6559 10.3174 21.7099 10.267 21.925C10.1992 22.2079 10.0423 22.2679 9.74778 22.1323C7.81028 21.2314 6.60128 18.4007 6.60128 16.1261C6.60128 11.2378 10.1547 6.74857 16.8429 6.74857C22.2195 6.74857 26.3987 10.579 26.3987 15.6998C26.3987 21.0415 23.0293 25.3408 18.3561 25.3408C16.7848 25.3408 15.3084 24.5251 14.8027 23.5603L13.8378 27.2454C13.4872 28.5919 12.5417 30.2795 11.91 31.3083C14.0412 31.9673 16.2895 32.1584 18.5014 31.8688C20.7133 31.5791 22.8365 30.8154 24.7262 29.6299C26.6158 28.4443 28.2273 26.8649 29.4505 24.9994C30.6737 23.134 31.4799 21.0265 31.8139 18.8209C32.1479 16.6153 32.0019 14.3636 31.3859 12.2196C30.7699 10.0756 29.6983 8.08983 28.2444 6.39795C26.7906 4.70607 24.9886 3.34794 22.9617 2.41634C20.9348 1.48475 18.7307 1.00163 16.5 1Z" fill="#20E4FF"/>
</g>
<defs>
<clipPath id="clip0_210_599">
<rect width="31" height="31" fill="white" transform="translate(1 1)"/>
</clipPath>
</defs>
</svg>
