<svg width="33" height="33" viewBox="0 0 33 33" fill="none" xmlns="http://www.w3.org/2000/svg">
<g clip-path="url(#clip0_210_600)">
<path d="M31.9997 16.5948C31.9997 7.98068 25.0596 0.997925 16.4997 0.997925C7.93597 0.999862 0.99585 7.98068 0.99585 16.5967C0.99585 24.3797 6.66498 30.8316 14.074 32.0018V21.1034H10.1409V16.5967H14.0779V13.1577C14.0779 9.24974 16.3932 7.09136 19.933 7.09136C21.6302 7.09136 23.403 7.39555 23.403 7.39555V11.2318H21.4481C19.5242 11.2318 18.9235 12.435 18.9235 13.6692V16.5948H23.2209L22.535 21.1014H18.9216V31.9999C26.3306 30.8296 31.9997 24.3777 31.9997 16.5948Z" fill="#20E4FF"/>
</g>
<defs>
<clipPath id="clip0_210_600">
<rect width="31" height="31" fill="white" transform="translate(1 1)"/>
</clipPath>
</defs>
</svg>
