<svg width="33" height="33" viewBox="0 0 33 33" fill="none" xmlns="http://www.w3.org/2000/svg">
<path d="M1.09688 7.88781C1.29221 7.03191 1.77239 6.2677 2.45879 5.72035C3.14518 5.17299 3.99709 4.87494 4.875 4.875H28.125C29.0029 4.87494 29.8548 5.17299 30.5412 5.72035C31.2276 6.2677 31.7078 7.03191 31.9031 7.88781L16.5 17.3021L1.09688 7.88781ZM1 10.1004V23.8644L12.2433 16.9708L1 10.1004ZM14.0994 18.1081L1.37006 25.9104C1.68457 26.5736 2.18096 27.1338 2.80145 27.5259C3.42195 27.9179 4.14103 28.1257 4.875 28.125H28.125C28.8589 28.1252 29.5777 27.9169 30.1978 27.5245C30.8179 27.1322 31.3139 26.5717 31.628 25.9085L18.8986 18.1062L16.5 19.5729L14.0994 18.1062V18.1081ZM20.7567 16.9728L32 23.8644V10.1004L20.7567 16.9708V16.9728Z" fill="#20E4FF"/>
</svg>
